<?xml version="1.0" encoding="utf-8"?>
<!-- Generator: Adobe Illustrator 16.0.0, SVG Export Plug-In . SVG Version: 6.00 Build 0)  -->
<!DOCTYPE svg PUBLIC "-//W3C//DTD SVG 1.0//EN" "http://www.w3.org/TR/2001/REC-SVG-20010904/DTD/svg10.dtd">
<svg version="1.0" id="Слой_1" xmlns="http://www.w3.org/2000/svg" xmlns:xlink="http://www.w3.org/1999/xlink" x="0px" y="0px"
	 width="47.999px" height="51px" viewBox="-5.935 19.075 47.999 51" enable-background="new -5.935 19.075 47.999 51"
	 xml:space="preserve">
<rect x="-5.935" y="19.075" fill="#FFFFFF" width="47.999" height="51"/>
<path fill="#FD7037" d="M28.113,38.052v-3.916h-4.047v-4.072H12.062v4.072H8.016v3.916H0.135v21.034h35.858V38.052H28.113z
	 M5.564,56.058h-2v-4.959h2V56.058z M9.421,56.058h-2v-4.959h2V56.058z M13.278,56.058h-2v-4.959h2V56.058z M17.135,56.058h-1.999
	v-4.959h1.999V56.058z M20.991,56.058h-2v-4.959h2V56.058z M24.851,56.058h-2v-4.959h2V56.058z M28.706,56.058h-1.998v-4.959h1.998
	V56.058z M32.564,56.058h-2v-4.959h2V56.058z"/>
</svg>
