<?xml version="1.0" encoding="utf-8"?>
<!-- Generator: Adobe Illustrator 16.0.0, SVG Export Plug-In . SVG Version: 6.00 Build 0)  -->
<!DOCTYPE svg PUBLIC "-//W3C//DTD SVG 1.0//EN" "http://www.w3.org/TR/2001/REC-SVG-20010904/DTD/svg10.dtd">
<svg version="1.0" id="Слой_1" xmlns="http://www.w3.org/2000/svg" xmlns:xlink="http://www.w3.org/1999/xlink" x="0px" y="0px"
	 width="24.737px" height="21.979px" viewBox="0 0 24.737 21.979" enable-background="new 0 0 24.737 21.979" xml:space="preserve">
<path d="M22.584,21.979H2.152c-0.856,0-1.552-0.355-1.91-0.975s-0.317-1.4,0.11-2.143L10.569,1.167C10.998,0.426,11.653,0,12.369,0
	s1.371,0.426,1.799,1.167l10.216,17.694c0.428,0.741,0.468,1.522,0.111,2.142C24.137,21.623,23.441,21.979,22.584,21.979z
	 M2.031,19.971c0.033,0.005,0.073,0.008,0.122,0.008h20.432c0.048,0,0.089-0.003,0.122-0.008c-0.013-0.03-0.03-0.067-0.055-0.109
	L12.436,2.167c-0.024-0.042-0.046-0.075-0.067-0.102c-0.02,0.026-0.043,0.06-0.067,0.102L2.085,19.861
	C2.061,19.903,2.043,19.94,2.031,19.971z M10.728,17.417c0-0.972,0.678-1.669,1.65-1.669s1.614,0.697,1.633,1.669
	c0,0.953-0.642,1.669-1.633,1.669C11.388,19.086,10.728,18.37,10.728,17.417z M11.333,14.831l-0.422-8.309h2.916l-0.403,8.309
	H11.333z"/>
</svg>
