<svg xmlns="http://www.w3.org/2000/svg" width="49" height="21" viewBox="0 0 48.7 21.1"><path d="M26.9 10.5l-1.2 0.7 -1.2 0.7V11h-5.8l1.3 2.7h1.7v-0.6h2.2v2.2h-2.2v-0.6H19.3l-1.8-3.7h-2.6c-0.2 0.5-0.7 0.9-1.3 0.9 -0.8 0-1.4-0.6-1.4-1.4 0-0.8 0.6-1.4 1.4-1.4 0.6 0 1.1 0.4 1.3 0.9h1l1.9-3.6h1.9c0.2-0.4 0.6-0.6 1-0.6 0.6 0 1.1 0.5 1.1 1.1 0 0.6-0.5 1.1-1.1 1.1 -0.4 0-0.8-0.3-1-0.6h-1.3L17.1 10h7.4V9.1l1.2 0.7L26.9 10.5zM39.1 19.5V1.6C39.1 0.7 38.4 0 37.5 0H1.6C0.7 0 0 0.7 0 1.6V19.5c0 0.9 0.7 1.6 1.6 1.6h36C38.4 21.1 39.1 20.4 39.1 19.5zM37.5 1c0.3 0 0.6 0.3 0.6 0.6V19.5c0 0.3-0.3 0.6-0.6 0.6H1.6C1.3 20.1 1 19.8 1 19.5V1.6C1 1.3 1.3 1 1.6 1H37.5zM48.7 2.7H38.8v1h9v14.5H38.8v1h10V2.7zM44.3 5.4h-2.1v4.1h2.1V5.4zM44.3 12.3h-2.1v4.1h2.1V12.3z" fill="#6C6C6C"/></svg>
