<?xml version="1.0" encoding="utf-8"?>
<!-- Generator: Adobe Illustrator 16.0.0, SVG Export Plug-In . SVG Version: 6.00 Build 0)  -->
<!DOCTYPE svg PUBLIC "-//W3C//DTD SVG 1.1//EN" "http://www.w3.org/Graphics/SVG/1.1/DTD/svg11.dtd">
<svg version="1.1" id="Слой_1" xmlns="http://www.w3.org/2000/svg" xmlns:xlink="http://www.w3.org/1999/xlink" x="0px" y="0px"
	 width="29px" height="29px" viewBox="0 0 29 29" enable-background="new 0 0 29 29" xml:space="preserve">
<path fill-rule="evenodd" clip-rule="evenodd" fill="#DDE0E1" d="M14.5,0C22.508,0,29,6.492,29,14.5S22.508,29,14.5,29
	C6.492,29,0,22.508,0,14.5S6.492,0,14.5,0z"/>
<path fill="#646565" d="M14.462,17.761c0-0.528,0.084-0.986,0.254-1.376c0.17-0.39,0.384-0.751,0.642-1.084
	c0.258-0.333,0.535-0.65,0.831-0.952s0.573-0.625,0.831-0.971s0.472-0.729,0.642-1.149s0.255-0.914,0.255-1.48
	c0-0.427-0.069-0.829-0.208-1.206s-0.349-0.703-0.632-0.98c-0.283-0.276-0.636-0.493-1.057-0.65
	c-0.422-0.156-0.91-0.235-1.463-0.235c-0.781,0-1.436,0.085-1.964,0.255c-0.529,0.169-1.032,0.398-1.51,0.688l0.509,1.169
	c0.34-0.214,0.743-0.398,1.208-0.556s0.925-0.236,1.379-0.236c0.78,0,1.337,0.183,1.671,0.547c0.333,0.364,0.5,0.836,0.5,1.414
	c0,0.427-0.079,0.808-0.236,1.141s-0.353,0.646-0.585,0.942c-0.233,0.295-0.485,0.587-0.755,0.876
	c-0.271,0.289-0.523,0.601-0.756,0.934s-0.428,0.7-0.585,1.103c-0.158,0.402-0.236,0.867-0.236,1.395c0,0.063,0,0.132,0,0.208
	c0,0.075,0.006,0.145,0.019,0.207H14.462z M13.131,21.021c0.195,0.201,0.456,0.302,0.784,0.302c0.34,0,0.61-0.101,0.812-0.302
	c0.202-0.201,0.303-0.465,0.303-0.791c0-0.34-0.101-0.606-0.303-0.802c-0.201-0.194-0.472-0.292-0.812-0.292
	c-0.328,0-0.589,0.098-0.784,0.292c-0.195,0.195-0.292,0.462-0.292,0.802C12.838,20.557,12.936,20.82,13.131,21.021z"/>
</svg>
