<?xml version="1.0" encoding="utf-8"?>
<!-- Generator: Adobe Illustrator 16.0.0, SVG Export Plug-In . SVG Version: 6.00 Build 0)  -->
<!DOCTYPE svg PUBLIC "-//W3C//DTD SVG 1.1//EN" "http://www.w3.org/Graphics/SVG/1.1/DTD/svg11.dtd">
<svg version="1.1" id="Слой_1" xmlns="http://www.w3.org/2000/svg" xmlns:xlink="http://www.w3.org/1999/xlink" x="0px" y="0px"
	 width="30.581px" height="30.593px" viewBox="0 0 30.581 30.593" enable-background="new 0 0 30.581 30.593" xml:space="preserve">
<path fill="#6C6C6C" d="M15.29,0C6.859,0,0,6.862,0,15.296c0,8.435,6.859,15.297,15.29,15.297c8.432,0,15.291-6.862,15.291-15.297
	C30.581,6.862,23.721,0,15.29,0z M26.615,22.22L23.6,22.235c0.685-1.987,1.079-4.244,1.11-6.639l3.855-0.017
	C28.514,18.01,27.806,20.276,26.615,22.22z M17.97,28.321c-0.792,0.162-1.612,0.245-2.449,0.26l0.041-5.304l6.587-0.034
	C21.127,25.574,19.67,27.367,17.97,28.321z M8.242,23.315l6.32-0.033l-0.041,5.271c-0.789-0.045-1.559-0.156-2.305-0.334
	C10.607,27.254,9.228,25.532,8.242,23.315z M3.89,8.496l2.829-0.015c-0.629,1.87-1.001,3.972-1.061,6.2L2.03,14.698
	C2.131,12.438,2.795,10.327,3.89,8.496z M12.216,2.374c0.81-0.193,1.648-0.309,2.508-0.345l-0.041,5.412L8.151,7.475
	C9.141,5.161,10.559,3.368,12.216,2.374z M22.173,7.403l-6.49,0.033l0.041-5.414c0.766,0.025,1.519,0.101,2.246,0.25
	C19.684,3.233,21.151,5.045,22.173,7.403z M24.698,14.597c-0.068-2.23-0.447-4.335-1.085-6.202L26.62,8.38
	c1.117,1.826,1.804,3.937,1.925,6.2L24.698,14.597z M23.699,14.602l-8.071,0.036l0.047-6.201l6.891-0.035
	C23.227,10.243,23.628,12.351,23.699,14.602z M14.675,8.441l-0.047,6.201l-7.971,0.036c0.062-2.248,0.454-4.356,1.106-6.201
	L14.675,8.441z M5.65,15.682c0.04,2.396,0.44,4.656,1.134,6.641l-2.748,0.015c-1.215-1.938-1.943-4.205-2.016-6.639L5.65,15.682z
	 M6.65,15.677l7.97-0.036l-0.051,6.641l-6.73,0.035C7.12,20.36,6.691,18.099,6.65,15.677z M15.569,22.276l0.051-6.639l8.09-0.036
	c-0.033,2.418-0.453,4.68-1.163,6.639L15.569,22.276z M25.946,7.383l-2.713,0.014c-0.693-1.695-1.598-3.161-2.662-4.297
	C22.718,4.035,24.564,5.525,25.946,7.383z M9.629,3.284C8.617,4.412,7.755,5.837,7.093,7.479l-2.54,0.013
	C5.861,5.696,7.604,4.244,9.629,3.284z M4.728,23.333l2.447-0.013c0.651,1.557,1.485,2.907,2.455,3.988
	C7.692,26.391,6.015,25.022,4.728,23.333z M20.57,27.492c1.057-1.127,1.955-2.578,2.646-4.255l2.719-0.015
	C24.554,25.074,22.712,26.561,20.57,27.492z"/>
</svg>
