<?xml version="1.0" encoding="utf-8"?>
<!-- Generator: Adobe Illustrator 16.0.0, SVG Export Plug-In . SVG Version: 6.00 Build 0)  -->
<!DOCTYPE svg PUBLIC "-//W3C//DTD SVG 1.1//EN" "http://www.w3.org/Graphics/SVG/1.1/DTD/svg11.dtd">
<svg version="1.1" id="Слой_1" xmlns="http://www.w3.org/2000/svg" xmlns:xlink="http://www.w3.org/1999/xlink" x="0px" y="0px"
	 width="33.374px" height="26px" viewBox="0 0 33.374 26" enable-background="new 0 0 33.374 26" xml:space="preserve">
<path fill="#6C6C6C" d="M31.374,0H2C0.897,0,0,0.897,0,2v17.813c0,1.103,0.897,2,2,2h10.062V24H7.25c-0.552,0-1,0.447-1,1
	s0.448,1,1,1h18.875c0.553,0,1-0.447,1-1s-0.447-1-1-1h-4.813v-2.188h10.063c1.103,0,2-0.897,2-2V2C33.374,0.897,32.477,0,31.374,0z
	 M2,19.813V2h29.374l0.002,17.813H2z"/>
</svg>
