<?xml version="1.0" encoding="utf-8"?>
<!-- Generator: Adobe Illustrator 16.0.0, SVG Export Plug-In . SVG Version: 6.00 Build 0)  -->
<!DOCTYPE svg PUBLIC "-//W3C//DTD SVG 1.0//EN" "http://www.w3.org/TR/2001/REC-SVG-20010904/DTD/svg10.dtd">
<svg version="1.0" id="Слой_1" xmlns="http://www.w3.org/2000/svg" xmlns:xlink="http://www.w3.org/1999/xlink" x="0px" y="0px"
	 width="35.858px" height="29.022px" viewBox="0 0 35.858 29.022" enable-background="new 0 0 35.858 29.022" xml:space="preserve">
<path fill="#D1D1D1" d="M27.977,7.987V4.071h-4.046V0H11.927v4.071H7.881v3.916H0v21.035h35.858V7.987H27.977z M5.429,25.995h-2
	v-4.959h2V25.995z M9.286,25.995h-2v-4.959h2V25.995z M13.143,25.995h-2v-4.959h2V25.995z M17,25.995h-1.999v-4.959H17V25.995z
	 M20.857,25.995h-2v-4.959h2V25.995z M24.715,25.995h-2v-4.959h2V25.995z M28.572,25.995h-1.999v-4.959h1.999V25.995z
	 M32.429,25.995h-2v-4.959h2V25.995z"/>
</svg>
