<svg version="1" xmlns="http://www.w3.org/2000/svg" width="429.631" height="222.833" viewBox="0 0 429.631 222.833"><path d="M262.033 7.7h10.5a.5.5 0 0 1 0 1h-10.5a.5.5 0 0 1 0-1zm-120.2-3h10.5a.5.5 0 0 0 0-1h-10.5a.5.5 0 0 0 0 1zm119.1 1.5a.5.5 0 0 0 .5.5h10.5a.5.5 0 0 0 0-1h-10.5a.5.5 0 0 0-.5.5zm33.9-1.5h10.5a.5.5 0 0 0 0-1h-10.5a.5.5 0 0 0 0 1zm1.5 3.5a.5.5 0 0 0 .5.5h10.5a.5.5 0 0 0 0-1h-10.5a.5.5 0 0 0-.5.5zm-17.4 0a.5.5 0 0 0 .5.5h10.5a.5.5 0 0 0 0-1h-10.5a.5.5 0 0 0-.5.5zm-138.7.5h10.5a.5.5 0 0 0 0-1h-10.5a.5.5 0 0 0 0 1zm-15.4-4h10.5a.5.5 0 0 0 0-1h-10.5a.5.5 0 0 0 0 1zm170.5 1.5a.5.5 0 0 0 .5.5h10.5a.5.5 0 0 0 0-1h-10.5a.5.5 0 0 0-.5.5zm-17.2 0a.5.5 0 0 0 .5.5h10.5a.5.5 0 0 0 0-1h-10.5a.5.5 0 0 0-.5.5zm-68.3 2.5h10.5a.5.5 0 0 0 0-1h-10.5a.5.5 0 0 0 0 1zm-68.8-2h10.5a.5.5 0 0 0 0-1h-10.5a.5.5 0 0 0 0 1zm136.8-2h10.5a.5.5 0 0 0 0-1h-10.5a.5.5 0 0 0 0 1zm-102.8 4h10.5a.5.5 0 0 0 0-1h-10.5a.5.5 0 0 0 0 1zm.4-2h10.5a.5.5 0 0 0 0-1h-10.5a.5.5 0 0 0 0 1zm34.4-2h10.5a.5.5 0 0 0 0-1h-10.5a.5.5 0 0 0 0 1zm-51 0h10.5a.5.5 0 0 0 0-1h-10.5a.5.5 0 0 0 0 1zm51 2h10.5a.5.5 0 0 0 0-1h-10.5a.5.5 0 0 0 0 1zm-17-2h10.5a.5.5 0 0 0 0-1h-10.5a.5.5 0 0 0 0 1zm-.2 2h10.5a.5.5 0 0 0 0-1h-10.5a.5.5 0 0 0 0 1zm-.2 2h10.5a.5.5 0 0 0 0-1h-10.5a.5.5 0 0 0 0 1zm-16.6-4h10.5a.5.5 0 0 0 0-1h-10.5a.5.5 0 0 0 0 1zm51.2 1a.5.5 0 0 0 0 1h10.5a.5.5 0 0 0 0-1h-10.5zm17.2 0a.5.5 0 0 0 0 1h10.5a.5.5 0 0 0 0-1h-10.5zm-.4-1h10.5a.5.5 0 0 0 0-1h-10.5a.5.5 0 0 0 0 1zm-16.6 3a.5.5 0 0 0 0 1h10.5a.5.5 0 0 0 0-1h-10.5zm17.4 0a.5.5 0 0 0 0 1h10.5a.5.5 0 0 0 0-1h-10.5zm-86.4-1h10.5a.5.5 0 0 0 0-1h-10.5a.5.5 0 0 0 0 1zm68.6-2h10.5a.5.5 0 0 0 0-1h-10.5a.5.5 0 0 0 0 1zm-69.2 4h10.5a.5.5 0 0 0 0-1h-10.5a.5.5 0 0 0 0 1zm103.2-4h10.5a.5.5 0 0 0 0-1h-10.5a.5.5 0 0 0 0 1zm-137 2h10.5a.5.5 0 0 0 0-1h-10.5a.5.5 0 0 0 0 1zm140.25 146.474h-.678v3.476h2.255v-.605h-1.576v-2.87zm-16.24 1.376a.852.852 0 0 0 .084-.395c0-.31-.098-.556-.293-.737-.195-.183-.45-.273-.762-.273-.306 0-.56.092-.76.275-.2.185-.3.43-.3.74h.635c0-.156.04-.27.122-.34a.453.453 0 0 1 .302-.104c.134 0 .236.04.31.12a.45.45 0 0 1 .11.314c0 .137-.06.276-.18.42l-1.3 1.508v.57h2.114v-.57h-1.343l.972-1.128a2.27 2.27 0 0 0 .29-.4zm19.785-1.376l1.27 3.476h-.708l-.205-.615h-1.235l-.21.615h-.708l1.265-3.476h.53zm.176 2.29l-.425-1.265-.44 1.263h.864zm-24.495-.162l-1.378-2.128h-.605v3.476h.68v-2.134l1.376 2.134h.605v-3.476h-.68v2.128zm-7.226-2.128h-.68v3.476h2.256v-.605h-1.576v-2.87zm3.544 0l1.27 3.476h-.708l-.205-.615h-1.235l-.21.615h-.708l1.265-3.476h.53zm.176 2.29l-.425-1.265-.44 1.263h.864zm-19.777-1.675v.682l.708-.614v2.792h.635v-3.476h-.635l-.708.615zm51.282 1.512l-1.378-2.128h-.605v3.476h.68v-2.134l1.376 2.134h.605v-3.476h-.68v2.128zm30.397-.396h-.61v.65h-.728l1.19-2.383h-.693l-1.19 2.382v.6h1.42v.494h.61v-.494h.317v-.6h-.317v-.65zm-84.398.396l-1.378-2.128h-.605v3.476h.68v-2.134l1.376 2.134h.605v-3.476h-.68v2.128zm128.617-141.23l-9.69 188.01c-.127 2.436-2.214 4.418-4.653 4.418h-32l-3 16.333H260.79l-7.417-6.166H177.29l-7.416 6.166h-35.792l-3-16.333h-32c-2.438 0-4.526-1.982-4.65-4.42L84.738 14.074c-.012-.214.01-.422.03-.63l-.033-.002.64-9.053C85.548 1.967 87.658 0 90.084 0h250.48c2.425 0 4.536 1.968 4.705 4.388l.64 9.053-.012.002c.02.208.042.417.03.63zM88.013 9.645c.346-.085.7-.144 1.07-.144h252.5c.36 0 .71.056 1.05.138l-.356-5.04c-.06-.867-.845-1.598-1.714-1.598H90.083c-.868 0-1.652.73-1.713 1.598l-.357 5.046zm48.155 207.94l.917-2.513.66-21.99-4.118 10.674 2.54 13.83zm-24.41-50.734l.686 20.303a2.62 2.62 0 0 0 2.598 2.515h200.166a2.62 2.62 0 0 0 2.596-2.515l.686-20.292-1.963 17.383c-.205 1.89-1.918 3.427-3.82 3.427H117.54c-1.9 0-3.614-1.538-3.817-3.43l-1.965-17.39zm.6-3.587l2.358 20.868c.148 1.378 1.44 2.54 2.824 2.54h195.17c1.406 0 2.674-1.14 2.824-2.537l2.357-20.872c.07-.647-.117-1.258-.528-1.716s-.998-.71-1.652-.71H114.54c-.653 0-1.24.252-1.65.71-.413.458-.6 1.068-.53 1.72zm179.49 27.404H233.7l28.48 24h30.385l-.718-24zm-59.7 0h-33.632l-20.963 17.666h75.56l-20.965-17.666zm-93.33 0l-.72 24h30.386l28.48-24h-58.147zm-2.236 29.166h32.084v-4.166h-30.733l-1.408 3.857.057.31zm39.625-6.166h.042v-3.765l-6.584 5.498v3.705l6.54-5.438zm77.208 0v-4.334H177.25v4.334h76.165zm7.584 5.438V215.4l-6.585-5.498v3.765h.042l6.542 5.438zm33.083.728l.057-.308-1.408-3.858H262v4.166h32.083zm2.954-16.076l-4.117-10.677.658 21.99.918 2.515 2.54-13.828zM342.93 13.92a1.34 1.34 0 0 0-.36-1.007 1.342 1.342 0 0 0-.986-.413h-252.5c-.383 0-.733.147-.986.413-.253.267-.38.624-.362 1.006l9.69 188.007c.045.853.803 1.573 1.657 1.573h33.57l4.95-12.833h-22.56c-1.922 0-3.536-1.562-3.598-3.48l-.806-23.838c-.03-.936.307-1.816.952-2.482s1.515-1.033 2.45-1.033H316.21c.933 0 1.803.366 2.447 1.032s.983 1.548.954 2.48l-.805 23.84c-.063 1.92-1.676 3.48-3.597 3.48H293.06l4.95 12.833h33.57c.854 0 1.612-.72 1.656-1.573h.002L342.93 13.92zM297.31 155.3l-1.378-2.128h-.605v3.476h.68v-2.134l1.376 2.134h.605v-3.476h-.68v2.128zm-21.818-.45c.267-.142.4-.38.4-.71a.94.94 0 0 0-.298-.72c-.2-.185-.452-.277-.762-.277-.3 0-.55.09-.752.27s-.306.42-.313.722h.635a.434.434 0 0 1 .13-.308c.08-.076.18-.113.3-.113s.222.04.303.117.122.187.122.327c0 .13-.037.235-.11.315s-.183.12-.33.12h-.092v.55h.093c.153 0 .272.045.358.13.087.087.13.203.13.35 0 .153-.043.272-.13.356a.46.46 0 0 1-.34.128.496.496 0 0 1-.333-.114c-.09-.077-.137-.19-.14-.34h-.635c.003.342.11.6.325.77.213.17.474.256.783.256.315 0 .578-.09.788-.27s.315-.434.315-.766c0-.368-.15-.63-.448-.79zm16.988-84.06a7.368 7.368 0 0 1-5.232-2.2 7.37 7.37 0 0 1-2.146-5.253 7.353 7.353 0 0 1 3.384-6.18l.028-5.7a4.07 4.07 0 0 1 4.062-4.042 4.05 4.05 0 0 1 2.888 1.204 4.03 4.03 0 0 1 1.176 2.878l-.028 5.7a7.35 7.35 0 0 1 3.323 6.212c-.02 4.07-3.346 7.38-7.415 7.38h-.04zm2.39-21.324c.086.335.146.678.145 1.03l-.028 5.7c.22.146.427.308.628.474l.025-5.177a3.033 3.033 0 0 0-.77-2.027zm-3.974 19.323c1.7 0 3.303-.657 4.513-1.855a6.372 6.372 0 0 0 1.9-4.528 6.368 6.368 0 0 0-3.085-5.508l-.24-.148.03-6.257a3.047 3.047 0 0 0-.734-1.99 3.03 3.03 0 0 0-.687-.087 3.073 3.073 0 0 0-3.078 3.047l-.03 6.258-.243.145a6.368 6.368 0 0 0-3.14 5.477 6.37 6.37 0 0 0 2.286 4.94 6.374 6.374 0 0 0 2.475.507h.033zm.84.95c.247.03.496.05.75.05l.033.5v-.5c3.52 0 6.396-2.863 6.414-6.383a6.358 6.358 0 0 0-1.074-3.568c.293.81.454 1.675.45 2.572a7.365 7.365 0 0 1-2.2 5.233 7.35 7.35 0 0 1-4.375 2.095zm1.892 83.434l1.27 3.476h-.708l-.205-.615h-1.235l-.21.615h-.708l1.265-3.476h.53zm.176 2.29l-.425-1.265-.44 1.263h.864zM122.834 8.7h10.5a.5.5 0 0 0 0-1h-10.5a.5.5 0 0 0 0 1zm167.25 144.474h-.68v3.476h2.256v-.605h-1.576v-2.87zM143.48 68.594a7.367 7.367 0 0 1-5.234 2.197h-.04c-4.068 0-7.394-3.31-7.414-7.378a7.354 7.354 0 0 1 3.323-6.213l-.028-5.7a4.038 4.038 0 0 1 1.175-2.878 4.036 4.036 0 0 1 2.867-1.204c2.25 0 4.07 1.813 4.082 4.042l.028 5.7a7.355 7.355 0 0 1 3.385 6.18 7.375 7.375 0 0 1-2.146 5.253zm-8.393-17.1l.026 5.177c.2-.164.406-.326.627-.472l-.028-5.7c0-.352.058-.695.144-1.03a3.035 3.035 0 0 0-.77 2.027zm3.903 18.246a7.357 7.357 0 0 1-4.375-2.095 7.367 7.367 0 0 1-2.198-5.233 7.428 7.428 0 0 1 .45-2.573 6.36 6.36 0 0 0-1.075 3.567c.017 3.52 2.895 6.384 6.415 6.384v.5l.034-.5c.253 0 .503-.02.75-.05zm3.778-1.85a6.373 6.373 0 0 0 1.857-4.546 6.37 6.37 0 0 0-3.14-5.477l-.242-.145-.03-6.258a3.07 3.07 0 0 0-3.063-3.047 3.11 3.11 0 0 0-.706.09 3.042 3.042 0 0 0-.732 1.988l.03 6.257-.24.147a6.367 6.367 0 0 0-3.084 5.507 6.376 6.376 0 0 0 1.9 4.528c1.22 1.206 2.797 1.87 4.547 1.856a6.376 6.376 0 0 0 2.474-.507c.146-.125.29-.255.428-.393zm1.59 86.897c.04.15.06.348.06.588 0 .244-.02.442-.06.594s-.117.282-.228.396c-.195.208-.46.313-.79.313s-.59-.105-.787-.314a.886.886 0 0 1-.227-.397c-.04-.152-.06-.35-.06-.595 0-.24.02-.437.06-.588a.89.89 0 0 1 .227-.397c.195-.21.457-.313.786-.313.33 0 .595.104.79.313a.88.88 0 0 1 .227.397zm-.574.588c0-.313-.05-.518-.146-.615a.406.406 0 0 0-.298-.112.397.397 0 0 0-.292.112c-.098.098-.146.303-.146.615 0 .316.05.522.146.62a.394.394 0 0 0 .292.112.402.402 0 0 0 .298-.112c.097-.098.146-.304.146-.62zm-2.197-1.89c.208.21.313.466.313.772s-.104.563-.313.77c-.208.21-.487.314-.835.314h-.668v1.31h-.68v-3.476h1.348c.348 0 .626.103.835.312zm-.366.773c0-.144-.044-.26-.136-.347s-.213-.13-.366-.13h-.634v.95h.634c.153 0 .275-.043.366-.13s.137-.2.137-.342zm-20.24 16.606c-.12-1.998.55-3.88 1.885-5.3 1.342-1.426 3.194-2.21 5.214-2.212.028 0 .057.004.086.005.03 0 .06-.005.09-.005 1.18 0 2.307.305 3.305.836 2.482 1.24 4.283 3.736 4.457 6.613.12 2-.55 3.883-1.886 5.302-1.342 1.426-3.193 2.21-5.212 2.21h-.002c-4.128 0-7.688-3.34-7.935-7.448zm1.87-.793c.19 3.187 2.953 5.778 6.156 5.778 1.544 0 2.958-.598 3.98-1.682 1.015-1.078 1.523-2.512 1.432-4.037-.13-2.174-1.46-4.07-3.308-5.056a6.82 6.82 0 0 0-2.912-.717c-1.52.016-2.91.606-3.917 1.676-1.014 1.08-1.523 2.513-1.43 4.038zm-.81 1.273c.477 3.338 3.45 5.97 6.877 5.97 1.742 0 3.335-.673 4.488-1.896a5.93 5.93 0 0 0 1.026-1.492 6.3 6.3 0 0 1-.717.93c-1.212 1.286-2.883 1.995-4.705 1.995h-.002c-3.306 0-6.203-2.38-6.967-5.507zm185.605 13.99H173.52v-22.416h135.17l-1.045 22.416zm-133.125-1h25.313v-20.416H174.52v20.416zm133.124-20.416h-106.81v20.416h105.855l.954-20.416zm-166.937 6.972a4.97 4.97 0 0 1 1.407-3.635 4.96 4.96 0 0 1 3.59-1.505c2.82 0 5.175 2.293 5.253 5.11a4.966 4.966 0 0 1-1.406 3.634 4.962 4.962 0 0 1-3.59 1.506c-2.817 0-5.174-2.293-5.253-5.11zm3.377-.015a1.808 1.808 0 0 0 1.797 1.748 1.69 1.69 0 0 0 1.7-1.748 1.807 1.807 0 0 0-1.796-1.748 1.69 1.69 0 0 0-1.7 1.748zm-5.86 9.556l-.445-16c-.012-.4.135-.78.415-1.067a1.46 1.46 0 0 1 1.056-.445h13.5c.82 0 1.506.667 1.53 1.485l.443 16c.01.403-.138.783-.417 1.07-.28.286-.654.444-1.056.444h-13.5c-.82 0-1.505-.667-1.527-1.486zm.554-16.028l.444 16c.007.28.25.515.527.515h13.5a.47.47 0 0 0 .47-.487l-.443-16a.54.54 0 0 0-.528-.514h-13.5a.47.47 0 0 0-.472.486zm74.85-11.228l1.27 3.476h-.71l-.204-.615h-1.235l-.21.615h-.71l1.265-3.476h.532zm.175 2.29l-.425-1.265-.44 1.263h.865zm-22.495-.162l-1.376-2.128h-.605v3.476h.68v-2.134l1.375 2.134h.605v-3.476h-.68v2.128zm18.775-2.128h-.68v3.476h2.256v-.605h-1.578v-2.87zm-22.456 0l1.27 3.476h-.708l-.206-.615h-1.235l-.21.615h-.71l1.265-3.476h.532zm.176 2.29l-.425-1.265-.44 1.263h.865zm-3.72-2.29h-.68v3.476h2.256v-.605h-1.578v-2.87zm-33.638 1.242c.197.227.295.52.295.876v.283h-1.59c0 .17.048.307.148.41.1.104.235.156.407.156.134 0 .242-.018.325-.055a.868.868 0 0 0 .25-.184l.387.377c-.14.14-.282.242-.425.306s-.324.095-.542.095c-.163 0-.31-.02-.44-.06a1.066 1.066 0 0 1-.37-.204.933.933 0 0 1-.27-.405 1.834 1.834 0 0 1-.097-.636c0-.406.1-.725.303-.954.202-.23.47-.344.805-.344.347 0 .618.113.815.34zm-.33.725a.723.723 0 0 0-.06-.272c-.077-.176-.22-.264-.424-.264s-.345.088-.423.264a.727.727 0 0 0-.06.273h.968zm2.1-.985a.746.746 0 0 0-.27.195v-.244h-.62v2.543h.635v-1.534a.47.47 0 0 1 .124-.347.398.398 0 0 1 .286-.123.47.47 0 0 1 .337.15l.48-.48a.814.814 0 0 0-.602-.24.892.892 0 0 0-.37.078zm-4.98 1.523l-.522-1.57h-.464l-.52 1.57-.41-1.57h-.673l.78 2.542h.523l.532-1.597.532 1.597h.522l.776-2.543h-.668l-.41 1.57zm49.588 14.342h-3.938v-1.808h-2.458v-2.125h-6.583v2.125h-2.458v1.808h-3.938v10.21h19.375v-10.21zm.5-.5h-3.938v-1.808h-2.458v-2.125h-7.583v2.125h-2.458v1.808h-3.938v11.21h20.375v-11.21zm-19.375 1h3.938v-1.808h2.458v-2.125h5.583v2.125h2.458v1.808h3.938v9.21h-18.375v-9.21zm1.97-4.543h-2.97v2.052h2.97v-2.053zm43.905 4.043h-3.938v-1.808h-2.46v-2.125h-6.582v2.125h-2.458v1.808h-3.938v10.21h19.375v-10.21zm.5-.5h-3.938v-1.808h-2.46v-2.125h-7.582v2.125h-2.458v1.808h-3.938v11.21h20.375v-11.21zm-19.375 1h3.938v-1.808h2.458v-2.125h5.583v2.125h2.46v1.808h3.937v9.21H204.95v-9.21zm1.97-4.543h-2.97v2.052h2.97v-2.053zm42.905 4.043h-3.938v-1.808h-2.46v-2.125h-6.583v2.125h-2.457v1.808h-3.938v10.21h19.375v-10.21zm.5-.5h-3.938v-1.808h-2.46v-2.125h-7.583v2.125h-2.457v1.808h-3.938v11.21h20.375v-11.21zm-19.375 1h3.938v-1.808h2.457v-2.125h5.584v2.125h2.46v1.808h3.937v9.21H230.95v-9.21zm1.97-4.543h-2.97v2.052h2.97v-2.053zm42.905 4.043h-3.938v-1.808h-2.46v-2.125h-6.583v2.125h-2.457v1.808h-3.938v10.21h19.185l.19-10.21zm.51-.5h-3.947v-1.808h-2.46v-2.125h-7.583v2.125h-2.457v1.808h-3.938v11.21h20.176l.21-11.21zm-19.385 1h3.938v-1.808h2.457v-2.125h5.584v2.125h2.46v1.808h3.927l-.172 9.21H256.95v-9.21zm1.97-4.543h-2.97v2.052h2.97v-2.053zm42.905 4.043h-3.938v-1.808h-2.46v-2.125h-6.583v2.125h-2.457v1.808h-3.938l-.215 10.21h19.1l.49-10.21zm.525-.5h-3.962v-1.808h-2.46v-2.125h-7.583v2.125h-2.457v1.808h-3.927l-.237 11.21h20.087l.538-11.21zm-19.41 1h3.948v-1.808h2.457v-2.125h5.584v2.125h2.46v1.808h3.912l-.443 9.21h-18.112l.193-9.21zm1.98-4.543h-2.97v2.052h2.97v-2.053zm-13.024-43.947h-113.06c-1.923 0-3.53-1.563-3.585-3.485l-1.832-65.062a3.395 3.395 0 0 1 .963-2.48 3.39 3.39 0 0 1 2.453-1.033h117.06c.935 0 1.806.367 2.453 1.032a3.4 3.4 0 0 1 .964 2.48l-1.832 65.063c-.054 1.922-1.662 3.485-3.584 3.485zm-115.06-71.06c-.663 0-1.28.26-1.736.73s-.7 1.093-.68 1.754l1.83 65.063a2.603 2.603 0 0 0 2.585 2.513h113.06a2.602 2.602 0 0 0 2.585-2.513l1.832-65.063a2.402 2.402 0 0 0-.68-1.756 2.4 2.4 0 0 0-1.736-.73h-117.06zm43.096 3.175v1.095h1.266v-1.095h.34v2.617h-.34v-1.227h-1.266v1.227h-.338v-2.617h.338zm3.193 2.616l-.027-.236h-.012a.7.7 0 0 1-.575.28c-.38 0-.575-.268-.575-.54 0-.455.404-.703 1.13-.7v-.038c0-.155-.043-.435-.428-.435a.94.94 0 0 0-.49.14l-.077-.224c.156-.1.38-.167.618-.167.574 0 .714.39.714.768v.703c0 .164.008.323.032.45h-.31zm-.05-.958c-.373-.008-.796.058-.796.423 0 .22.148.326.323.326a.47.47 0 0 0 .455-.313.38.38 0 0 0 .02-.11v-.325zm1.01-.132h.16c.29 0 .483-.132.483-.307 0-.167-.15-.272-.365-.272a.913.913 0 0 0-.454.133l-.085-.21c.19-.116.408-.17.626-.17.287 0 .637.127.637.492 0 .233-.213.384-.423.427v.008c.28.023.512.194.512.47 0 .407-.415.56-.81.56a1.29 1.29 0 0 1-.61-.152l.09-.23c.135.074.317.13.496.13.283 0 .462-.137.462-.323 0-.252-.264-.322-.547-.322h-.17v-.233zm1.48-.764c.132-.023.377-.043.598-.043.315 0 .836.05.836.47 0 .232-.18.376-.392.423v.008c.275.04.478.194.478.466 0 .493-.622.555-.99.555-.21 0-.427-.016-.528-.023v-1.856zm.323 1.63c.097.012.167.016.275.016.23 0 .572-.054.572-.326s-.272-.33-.598-.33h-.25v.64zm.004-.866h.256c.252 0 .512-.074.512-.295 0-.186-.163-.275-.504-.275-.113 0-.183.008-.264.016v.554zm2.634 1.09l-.027-.236h-.012a.703.703 0 0 1-.575.28c-.38 0-.574-.268-.574-.54 0-.455.404-.703 1.13-.7v-.038c0-.155-.043-.435-.427-.435a.94.94 0 0 0-.49.14l-.078-.224c.156-.1.38-.167.617-.167.574 0 .713.39.713.768v.703c0 .164.008.323.032.45h-.31zm-.05-.958c-.372-.008-.796.058-.796.423 0 .22.147.326.323.326.245 0 .4-.154.455-.313a.35.35 0 0 0 .02-.11v-.325zm1.183-.92v.757h.893v-.758h.338v1.88h-.338v-.85h-.893v.85h-.338v-1.88h.337zm2.076 0v.792c0 .3-.004.485-.02.753l.01.004c.113-.228.18-.36.304-.578l.586-.97h.4v1.878h-.327v-.795c0-.307.008-.466.023-.77h-.01c-.12.242-.202.393-.31.584-.18.29-.385.65-.587.98h-.392v-1.878h.323zm1.998 1.002c.008.462.304.652.645.652.245 0 .392-.043.52-.097l.06.244c-.12.055-.328.116-.626.116-.58 0-.924-.38-.924-.947s.333-1.013.88-1.013c.614 0 .777.54.777.885 0 .07-.008.124-.012.16h-1.32zm1.002-.244c.004-.218-.09-.555-.473-.555-.347 0-.498.318-.526.555h.998zm1.54-.758h.42l.34.947c.048.14.13.368.172.515h.008c.043-.14.148-.438.222-.645l.302-.82h.424l.133 1.88h-.326l-.043-.896c-.012-.202-.027-.443-.035-.672h-.013c-.05.17-.102.322-.205.61l-.36.946h-.25l-.333-.928c-.06-.18-.14-.45-.188-.625h-.016c-.008.22-.02.47-.03.675l-.048.89h-.315l.14-1.878zm4.134.924c0 .695-.48.998-.937.998-.51 0-.9-.373-.9-.967 0-.63.41-.998.932-.998.54 0 .904.392.904.966zm-1.49.02c0 .412.235.722.57.722.326 0 .57-.307.57-.73 0-.318-.16-.722-.563-.722-.402 0-.578.373-.578.73zm3.32-.944v1.623l.196.004-.02.85h-.27l-.015-.598h-1.3l-.016.598h-.268l-.016-.85.16-.005c.08-.12.143-.25.186-.384.073-.232.108-.484.108-.748v-.49h1.257zm-.95.57a2.5 2.5 0 0 1-.097.7c-.04.128-.095.245-.152.35h.865v-1.36h-.617v.31zm1.7.432c.007.462.302.652.644.652.245 0 .393-.043.52-.097l.06.244c-.12.055-.326.116-.626.116-.578 0-.924-.38-.924-.947s.334-1.013.882-1.013c.613 0 .776.54.776.885 0 .07-.008.124-.012.16h-1.32zm1-.244c.005-.218-.09-.555-.473-.555-.346 0-.497.318-.524.555h.997zm2.155-.758v1.88h-.337V55.15h-.645v.49c0 .527-.05.88-.295 1.04a.55.55 0 0 1-.373.117l-.035-.268a.434.434 0 0 0 .188-.08c.174-.127.193-.39.193-.81v-.757h1.305zm.845 0v.792c0 .3-.004.485-.02.753l.012.004c.113-.228.18-.36.304-.578l.587-.97h.4v1.878h-.326v-.795c0-.307.008-.466.023-.77h-.012c-.12.242-.2.393-.31.584-.178.29-.384.65-.586.98h-.393v-1.878h.325zm1.727.31c0-.143.098-.244.233-.244s.226.1.23.245c0 .136-.09.24-.233.24-.136 0-.23-.104-.23-.24zm0 1.37c0-.143.098-.244.233-.244s.226.1.23.245c0 .136-.09.24-.233.24-.136 0-.23-.104-.23-.24zm1.618-.212a1.2 1.2 0 0 0 .606.17c.345 0 .547-.182.547-.446 0-.245-.14-.384-.493-.52-.427-.152-.69-.374-.69-.742 0-.408.338-.71.846-.71.27 0 .463.062.58.128l-.095.276a1.033 1.033 0 0 0-.495-.125c-.357 0-.493.214-.493.393 0 .245.158.365.52.505.442.17.668.384.668.77 0 .403-.3.752-.916.752-.252 0-.528-.073-.668-.167l.084-.283zm2.555-1.794h-.01l-.437.237-.065-.26.55-.295h.292v2.523h-.33v-2.204zm2.898.917c0 .858-.318 1.332-.878 1.332-.492 0-.826-.462-.834-1.297 0-.846.365-1.312.878-1.312.532 0 .835.473.835 1.277zm-1.37.038c0 .657.2 1.03.512 1.03.35 0 .517-.408.517-1.052 0-.62-.16-1.03-.513-1.03-.3 0-.517.366-.517 1.053zm2.398-.954h-.007l-.438.237-.066-.26.55-.295h.292v2.523h-.33v-2.204zm2.9.917c0 .858-.318 1.332-.878 1.332-.493 0-.826-.462-.835-1.297 0-.846.365-1.312.878-1.312.532 0 .835.473.835 1.277zm-1.37.038c0 .657.2 1.03.512 1.03.35 0 .517-.408.517-1.052 0-.62-.16-1.03-.514-1.03-.3 0-.517.366-.517 1.053zm1.682 1.05c0-.144.098-.245.233-.245s.23.1.23.245c0 .14-.09.245-.233.245-.136 0-.23-.106-.23-.245zm.87.2v-2.616h.37l.838 1.324c.194.307.346.582.47.85l.008-.004c-.03-.35-.04-.667-.04-1.075v-1.096h.32v2.617h-.342l-.83-1.327a8.14 8.14 0 0 1-.49-.874l-.012.003c.02.33.027.644.027 1.08v1.117h-.317zm2.526-2.58c.147-.03.38-.054.617-.054.338 0 .556.058.72.19a.55.55 0 0 1 .217.462c0 .252-.168.474-.443.575v.008c.248.063.54.27.54.657 0 .226-.09.396-.223.524-.183.168-.478.246-.904.246-.233 0-.412-.016-.524-.03V54.18zm.338 1.07h.307c.357 0 .567-.185.567-.437 0-.307-.233-.427-.575-.427-.155 0-.245.012-.3.023v.84zm0 1.255c.066.012.163.016.284.016.35 0 .67-.127.67-.507 0-.357-.306-.505-.675-.505h-.28v.997zm1.738.256v-2.616h.368l.84 1.324c.193.307.345.582.47.85l.008-.004c-.032-.35-.04-.667-.04-1.075v-1.096h.32v2.617h-.343l-.83-1.327a8.14 8.14 0 0 1-.49-.874l-.012.003c.02.33.027.644.027 1.08v1.117h-.318zm-45.437 1.928h-.703v-.497h2.012v.498h-.715v2.12h-.593v-2.12zm1.665 1.36c.02.244.26.36.536.36.2 0 .365-.027.524-.078l.077.4c-.195.078-.432.117-.688.117-.645 0-1.014-.373-1.014-.967 0-.48.3-1.013.96-1.013.612 0 .845.477.845.947 0 .1-.01.19-.02.233h-1.22zm.695-.405c0-.144-.063-.384-.334-.384-.248 0-.35.224-.365.383h.7zm1.292-.734l.185.313c.054.097.105.194.156.284h.01c.05-.1.096-.198.146-.292l.167-.307h.64l-.624.905.632.994h-.668l-.19-.34a3.39 3.39 0 0 1-.147-.29h-.012c-.046.102-.097.195-.144.29l-.177.34h-.65l.646-.967-.63-.932h.66zm2.122 0v.687h.598v-.688h.593v1.897h-.593v-.753h-.598v.753h-.59V58.91h.59zm2.188 0v.582c0 .303-.016.516-.03.772l.015.004c.09-.217.14-.365.217-.543l.37-.815h.72v1.898h-.558v-.578c0-.295.016-.42.035-.823h-.017c-.074.21-.12.334-.198.512-.12.263-.264.593-.396.888h-.72V58.91h.56zm2.274 0v.574c0 .21.08.318.283.318.097 0 .202-.04.256-.082v-.812h.59v1.898h-.59V60.1h-.008a.942.942 0 0 1-.478.12c-.407 0-.644-.233-.644-.684v-.63h.59zm2.025 1.137c.02.245.26.36.535.36.2 0 .365-.026.524-.077l.076.4c-.194.078-.43.117-.687.117-.646 0-1.014-.373-1.014-.967 0-.48.3-1.013.958-1.013.613 0 .846.477.846.947 0 .1-.01.19-.02.233h-1.22zm.695-.404c0-.144-.063-.384-.335-.384-.248 0-.35.224-.365.383h.7zm2.297 1.118a1.45 1.45 0 0 1-.528.086c-.614 0-1.006-.373-1.006-.97 0-.556.38-1.01 1.087-1.01.155 0 .326.027.45.074l-.093.438a.81.81 0 0 0-.33-.058c-.31 0-.513.22-.51.532 0 .35.234.532.522.532.14 0 .25-.023.337-.06l.072.437zm.883-1.85v.756h.066l.48-.757h.69l-.698.814c.225.043.365.25.477.524.062.16.136.38.23.56h-.62c-.05-.082-.096-.218-.17-.42-.084-.218-.202-.334-.395-.334h-.06v.753h-.585V58.91h.585zm2.562 1.898l-.035-.19h-.012a.684.684 0 0 1-.543.233c-.385 0-.614-.28-.614-.582 0-.493.442-.73 1.114-.726v-.027c0-.1-.055-.245-.345-.245-.194 0-.4.066-.524.144l-.108-.38c.132-.074.392-.167.737-.167.633 0 .834.373.834.82v.66c0 .182.01.356.028.46h-.53zm-.07-.897c-.31-.003-.55.07-.55.3 0 .15.1.225.23.225a.323.323 0 0 0 .308-.217.41.41 0 0 0 .012-.1v-.207zm2.712.898h-.583v-.714h-.12a.327.327 0 0 0-.272.136c-.1.097-.147.275-.206.423-.023.055-.043.093-.074.155h-.63a.97.97 0 0 0 .118-.21c.06-.15.146-.395.268-.523a.467.467 0 0 1 .24-.14v-.012c-.213-.023-.49-.167-.49-.47 0-.237.133-.373.323-.462.175-.084.438-.112.7-.112.294 0 .558.02.725.043v1.888zm-.583-1.55a1.186 1.186 0 0 0-.202-.015c-.19 0-.354.074-.354.245 0 .167.188.25.362.25.093 0 .144-.005.194-.005v-.474zm3.543-.35v1.9h-.595V59.36h-.582v1.448h-.59V58.91h1.767zm2.32.93c0 .694-.492 1.013-1 1.013-.556 0-.982-.364-.982-.978s.403-1.005 1.013-1.005c.582 0 .97.4.97.97zm-1.373.018c0 .326.136.57.388.57.23 0 .377-.228.377-.57 0-.283-.108-.57-.377-.57-.284 0-.388.29-.388.57zm3.42-.947v1.482l.208.008-.026 1.02h-.444l-.02-.612h-1.2l-.022.613h-.446l-.016-1.016.175-.012c.08-.12.147-.256.19-.396.054-.198.085-.41.085-.62v-.467h1.514zm-1.003.652c0 .16-.027.33-.07.493a1.17 1.17 0 0 1-.132.322h.63V59.34h-.428v.222zm3.35-.653v1.482l.208.008-.026 1.02h-.443l-.02-.612h-1.2l-.022.613h-.445l-.016-1.016.174-.012c.08-.12.147-.256.19-.396.054-.198.086-.41.086-.62v-.467h1.513zm-1.003.652c0 .16-.026.33-.07.493a1.17 1.17 0 0 1-.13.322h.628V59.34h-.427v.222zm1.942.485c.02.245.26.36.535.36.202 0 .364-.026.524-.077l.078.4c-.194.078-.43.117-.687.117-.644 0-1.013-.373-1.013-.967 0-.48.3-1.013.96-1.013.612 0 .846.477.846.947 0 .1-.013.19-.02.233h-1.22zm.694-.404c0-.144-.062-.384-.334-.384-.248 0-.35.224-.365.383h.7zm.872-.097c0-.25-.007-.462-.015-.637h.512l.027.263h.008c.14-.202.357-.307.633-.307.415 0 .788.36.788.967 0 .69-.437 1.017-.86 1.017-.23 0-.408-.093-.493-.217h-.008v.943h-.592v-2.03zm.59.447c0 .046.005.09.013.124.04.16.176.28.346.28.257 0 .408-.214.408-.536 0-.302-.136-.53-.4-.53a.37.37 0 0 0-.353.298.436.436 0 0 0-.01.104v.26zm2.088-1.084l.427.76h.063v-.76h.57v.76h.06l.43-.76h.652l-.66.818c.214.04.36.248.443.48.078.214.14.424.226.6h-.59c-.055-.094-.102-.246-.163-.436-.074-.21-.194-.322-.35-.322h-.047v.757h-.57v-.757h-.047c-.172 0-.28.11-.357.322-.07.198-.113.337-.168.435h-.582c.09-.18.155-.384.233-.594.085-.24.225-.446.438-.485l-.66-.82h.652zm3 0v.756h.065l.48-.757h.69l-.7.814c.227.043.366.25.48.524.062.16.135.38.228.56h-.617c-.05-.082-.096-.218-.17-.42-.086-.218-.202-.334-.396-.334h-.06v.753h-.585V58.91h.585zm2.56 1.898l-.034-.19h-.013a.684.684 0 0 1-.544.233c-.385 0-.613-.28-.613-.582 0-.493.442-.73 1.114-.726v-.027c0-.1-.055-.245-.346-.245-.193 0-.4.066-.523.144l-.108-.38c.13-.074.39-.167.736-.167.633 0 .835.373.835.82v.66c0 .182.01.356.028.46h-.532zm-.07-.897c-.31-.003-.55.07-.55.3 0 .15.1.225.232.225a.324.324 0 0 0 .307-.217.41.41 0 0 0 .012-.1v-.207zm.97-.667c0-.21.145-.357.35-.357.206 0 .342.144.346.357 0 .202-.14.354-.35.354-.202 0-.345-.152-.345-.354zm0 1.254c0-.206.145-.357.35-.357.206 0 .342.147.346.357 0 .202-.14.354-.35.354-.202 0-.345-.15-.345-.353zm1.67-.35c0-.302.174-.512.45-.632v-.012c-.245-.124-.366-.33-.366-.55 0-.428.385-.71.89-.71.59 0 .835.34.835.647 0 .218-.117.43-.365.555v.012c.244.093.462.303.462.63 0 .457-.385.764-.97.764-.642 0-.937-.36-.937-.702zm1.303-.02c0-.22-.164-.352-.397-.415-.194.055-.307.194-.307.376a.346.346 0 0 0 .357.354c.21 0 .346-.135.346-.314zm-.665-1.194c0 .17.155.28.357.342a.345.345 0 0 0 .256-.322c0-.155-.09-.31-.307-.31-.2 0-.305.13-.305.29zm2.496.66v.39h-1.017v-.39h1.018zm.213.555c0-.303.175-.513.45-.633v-.012c-.244-.124-.365-.33-.365-.55 0-.428.385-.71.89-.71.59 0 .835.34.835.647 0 .218-.117.43-.365.555v.012c.244.093.462.303.462.63 0 .457-.385.764-.97.764-.642 0-.937-.36-.937-.702zm1.305-.02c0-.22-.163-.353-.396-.416-.194.055-.307.194-.307.376a.346.346 0 0 0 .357.354c.21 0 .346-.135.346-.314zm-.664-1.195c0 .17.155.28.357.342a.345.345 0 0 0 .257-.322c0-.155-.09-.31-.307-.31-.2 0-.306.13-.306.29zm3.39.6c0 .78-.316 1.317-.96 1.317-.653 0-.94-.586-.944-1.3 0-.73.31-1.31.963-1.31.675.002.94.603.94 1.294zm-1.31.017c-.004.58.136.854.364.854.23 0 .354-.287.354-.862 0-.56-.12-.854-.357-.854-.217 0-.365.276-.36.862zm3.435-.016c0 .78-.315 1.316-.96 1.316-.652 0-.94-.586-.944-1.3 0-.73.312-1.31.964-1.31.674.002.94.603.94 1.294zm-1.31.016c-.004.58.136.854.365.854.23 0 .354-.287.354-.862 0-.56-.122-.854-.358-.854-.218 0-.366.276-.362.862zm2.542.042v.392h-1.018v-.392h1.018zm1.937-.822h-.98l-.055.388c.055-.008.102-.008.163-.008.24 0 .485.054.664.183.19.128.307.337.307.633 0 .47-.404.885-1.084.885-.307 0-.563-.07-.703-.143l.105-.443c.112.055.342.125.57.125.245 0 .505-.118.505-.386 0-.26-.206-.42-.71-.42-.14 0-.237.008-.342.024l.168-1.324h1.39v.486zm2.125 0h-.978l-.055.388c.055-.008.1-.008.163-.008.24 0 .485.054.664.183.188.128.305.337.305.633 0 .47-.403.885-1.083.885-.307 0-.563-.07-.702-.143l.104-.443c.113.055.342.125.57.125.245 0 .505-.118.505-.386 0-.26-.207-.42-.71-.42-.14 0-.237.008-.343.024l.167-1.324h1.39v.486zm2.305.764c0 .78-.314 1.316-.96 1.316-.652 0-.938-.586-.943-1.3 0-.73.31-1.31.963-1.31.676.002.94.603.94 1.294zm-1.308.016c-.004.58.136.854.364.854.23 0 .354-.287.354-.862 0-.56-.12-.854-.356-.854-.22 0-.366.276-.362.862zm2.54.042v.392h-1.016v-.392h1.017zm.214.556c0-.303.175-.513.45-.633v-.012c-.244-.124-.364-.33-.364-.55 0-.428.384-.71.89-.71.59 0 .834.34.834.647 0 .218-.116.43-.365.555v.012c.246.093.464.303.464.63 0 .457-.385.764-.97.764-.643 0-.938-.36-.938-.702zm1.304-.02c0-.22-.163-.353-.396-.416-.194.055-.307.194-.307.376a.346.346 0 0 0 .357.354c.21 0 .346-.135.346-.314zm-.663-1.195c0 .17.155.28.356.342.136-.04.257-.163.257-.322 0-.155-.09-.31-.308-.31-.2 0-.305.13-.305.29zm1.486 1.215c0-.303.175-.513.45-.633v-.012c-.244-.124-.365-.33-.365-.55 0-.428.385-.71.89-.71.59 0 .835.34.835.647 0 .218-.117.43-.365.555v.012c.244.093.462.303.462.63 0 .457-.385.764-.97.764-.643 0-.937-.36-.937-.702zm1.303-.02c0-.22-.162-.353-.396-.416-.194.055-.307.194-.307.376a.346.346 0 0 0 .357.354c.21 0 .346-.135.346-.314zm-.663-1.195c0 .17.155.28.357.342a.345.345 0 0 0 .256-.322c0-.155-.09-.31-.307-.31-.202 0-.307.13-.307.29zm1.485 1.215c0-.303.175-.513.45-.633v-.012c-.244-.124-.364-.33-.364-.55 0-.428.384-.71.89-.71.59 0 .834.34.834.647 0 .218-.117.43-.365.555v.012c.245.093.462.303.462.63 0 .457-.384.764-.97.764-.64 0-.937-.36-.937-.702zm1.305-.02c0-.22-.163-.353-.396-.416-.194.055-.308.194-.308.376a.346.346 0 0 0 .356.354c.21 0 .347-.135.347-.314zm-.664-1.195c0 .17.154.28.356.342a.345.345 0 0 0 .256-.322c0-.155-.09-.31-.307-.31-.2 0-.306.13-.306.29zm1.484 1.215c0-.303.175-.513.45-.633v-.012c-.244-.124-.364-.33-.364-.55 0-.428.384-.71.89-.71.59 0 .834.34.834.647 0 .218-.116.43-.365.555v.012c.244.093.462.303.462.63 0 .457-.385.764-.97.764-.642 0-.938-.36-.938-.702zm1.305-.02c0-.22-.164-.353-.397-.416-.194.055-.307.194-.307.376a.346.346 0 0 0 .357.354c.21 0 .346-.135.346-.314zm-.664-1.195c0 .17.155.28.357.342a.345.345 0 0 0 .256-.322c0-.155-.09-.31-.31-.31-.2 0-.304.13-.304.29zm-70.015 4.023l.152.776c.04.198.078.408.11.625h.007a9.23 9.23 0 0 1 .14-.62l.2-.78h.467l.19.756c.05.214.1.427.14.645h.008c.027-.217.066-.43.108-.648l.163-.753h.578l-.582 1.898h-.555l-.18-.668a7.492 7.492 0 0 1-.12-.59h-.008c-.036.237-.075.41-.125.59l-.19.668h-.555l-.55-1.898h.6zm2.993 0l.152.776c.04.198.077.408.108.625h.008a9.23 9.23 0 0 1 .14-.62l.203-.78h.466l.19.756c.05.214.1.427.14.645h.007c.027-.217.066-.43.11-.648l.16-.753h.58l-.582 1.898h-.556l-.18-.668a7.52 7.52 0 0 1-.12-.59h-.007c-.035.237-.074.41-.125.59l-.19.668h-.555l-.55-1.898h.6zm2.99 0l.153.776c.04.198.078.408.11.625h.007a9.23 9.23 0 0 1 .14-.62l.202-.78H207l.19.756c.05.214.1.427.14.645h.007c.028-.217.066-.43.11-.648l.162-.753h.578l-.583 1.898h-.556l-.18-.668a7.062 7.062 0 0 1-.12-.59h-.007c-.035.237-.074.41-.125.59l-.19.668h-.555l-.552-1.898h.604zm2.282 1.584c0-.21.144-.36.35-.36s.346.146.346.36c0 .206-.14.357-.348.357-.203 0-.347-.15-.347-.357zm1.433-1.584l.15.776c.04.198.08.408.11.625h.007c.038-.217.093-.435.14-.62l.202-.78h.466l.19.756c.05.214.1.427.14.645h.008c.028-.217.067-.43.11-.648l.163-.753h.58l-.583 1.898h-.555l-.18-.668a7.52 7.52 0 0 1-.12-.59h-.007c-.035.237-.074.41-.125.59l-.19.668h-.555l-.552-1.898h.602zm3.12-.528c0 .164-.125.295-.318.295-.187 0-.31-.132-.307-.295-.004-.17.12-.3.31-.3s.31.13.315.3zm-.61 2.426v-1.898h.59v1.898h-.59zm1.102 0V63.39H213v-.435h.25v-.082c0-.524.408-.82.994-.82.202 0 .442.047.56.118l-.113.447a.936.936 0 0 0-.43-.097c-.31 0-.42.16-.42.37v.065h1.153v1.898h-.59V63.39h-.56v1.463h-.593zm2.188-1.273c0-.278-.008-.46-.016-.624h.508l.02.35h.016a.558.558 0 0 1 .637-.385v.556a.833.833 0 0 0-.16-.015c-.216 0-.364.117-.403.3a.674.674 0 0 0-.012.132v.963h-.59V63.58zm1.87.514c.02.244.262.36.537.36.202 0 .365-.026.523-.077l.078.4a1.868 1.868 0 0 1-.688.116c-.645 0-1.013-.373-1.013-.966 0-.48.3-1.014.958-1.014.614 0 .848.478.848.947 0 .1-.01.19-.02.233h-1.22zm.696-.404c0-.144-.063-.384-.334-.384-.25 0-.35.225-.364.384h.698zm.767.85c0-.21.145-.36.35-.36.206 0 .346.146.346.36 0 .206-.14.357-.35.357-.2 0-.345-.15-.345-.357zm1.026-.96c0-.278-.008-.46-.016-.624h.51l.018.35h.017a.557.557 0 0 1 .636-.385v.556a.813.813 0 0 0-.157-.015c-.218 0-.365.117-.404.3a.674.674 0 0 0-.013.132v.963h-.59V63.58zm3.225.665c0 .248.01.45.016.61h-.512l-.027-.27h-.012a.675.675 0 0 1-.594.312c-.384 0-.667-.24-.667-.827v-1.114h.594v1.02c0 .277.09.443.296.443a.317.317 0 0 0 .314-.335v-1.13h.595v1.29zm-21.96 4.31h.34v1.174h.008a.71.71 0 0 1 .594-.338c.252 0 .656.154.656.803v1.118h-.34v-1.08c0-.303-.114-.56-.436-.56a.49.49 0 0 0-.482.506v1.133h-.34v-2.757zm2.58.34v.54h.488v.26h-.49v1.012c0 .233.066.365.257.365a.79.79 0 0 0 .198-.023l.015.255a.836.836 0 0 1-.303.047c-.16 0-.287-.05-.368-.144-.098-.1-.132-.268-.132-.49v-1.024h-.292v-.26h.292v-.45l.334-.09zm1.315 0v.54h.49v.26h-.49v1.012c0 .233.065.365.256.365a.79.79 0 0 0 .2-.023l.014.255a.836.836 0 0 1-.303.047c-.158 0-.286-.05-.367-.144-.098-.1-.132-.268-.132-.49v-1.024h-.29v-.26h.29v-.45l.335-.09zm.903 1.152c0-.24-.007-.435-.015-.614h.307l.015.322h.008a.74.74 0 0 1 .667-.365c.455 0 .796.384.796.955 0 .675-.412 1.01-.854 1.01-.25 0-.466-.11-.58-.296h-.007v1.02h-.338v-2.033zm.338.5c0 .05.008.097.015.14.064.236.27.4.514.4.36 0 .57-.296.57-.727 0-.377-.197-.7-.56-.7a.545.545 0 0 0-.515.424.577.577 0 0 0-.024.14v.323zm1.82-.803c0-.144.097-.245.233-.245.135 0 .224.1.228.244 0 .136-.09.24-.233.24-.136 0-.23-.104-.23-.24zm0 1.37c0-.144.097-.245.233-.245.135 0 .224.1.228.244 0 .136-.09.24-.233.24-.136 0-.23-.104-.23-.24zm.628.354l1.084-2.815h.264l-1.087 2.815h-.26zm1.362 0l1.083-2.815h.263l-1.087 2.815h-.26zm2.282-2.36h-.008l-.438.235-.066-.26.55-.295h.292v2.523h-.33v-2.203zm1.478 1.964c.074.007.16 0 .276-.012a.952.952 0 0 0 .528-.245c.167-.15.288-.373.334-.672h-.012a.74.74 0 0 1-.594.272c-.454 0-.745-.342-.745-.773 0-.477.345-.896.86-.896.518 0 .836.42.836 1.063 0 .554-.187.942-.436 1.184-.194.19-.462.307-.734.337-.124.02-.233.024-.314.02v-.278zm.124-1.452c0 .314.19.536.485.536.23 0 .408-.112.497-.264a.22.22 0 0 0 .032-.124c0-.43-.16-.76-.517-.76-.29-.002-.497.254-.497.612zm1.7 1.693v-.21l.268-.26c.645-.613.936-.94.94-1.32 0-.256-.125-.493-.502-.493-.23 0-.42.117-.536.214l-.108-.24c.174-.148.423-.257.714-.257.543 0 .772.373.772.734 0 .467-.337.843-.87 1.356l-.2.186v.008h1.132v.284h-1.61zm2.05-.203c0-.144.096-.245.23-.245s.23.1.23.245c0 .14-.09.245-.233.245-.136 0-.228-.105-.228-.245zm1.547-2.003h-.008l-.44.236-.065-.26.55-.295h.292v2.523h-.33v-2.203zm2.72-.078c-.07-.005-.16 0-.256.015-.536.09-.818.48-.877.897h.012a.75.75 0 0 1 .61-.292c.445 0 .76.322.76.815 0 .462-.314.89-.838.89-.54 0-.893-.42-.893-1.076 0-.498.178-.89.426-1.14.21-.205.49-.333.81-.372.1-.016.185-.02.247-.02v.28zm-.097 1.455c0-.36-.205-.578-.52-.578a.562.562 0 0 0-.49.31.293.293 0 0 0-.038.15c.008.417.198.723.556.723.294 0 .492-.243.492-.605zm.647.186c0-.317.19-.542.5-.674l-.003-.012c-.28-.132-.4-.35-.4-.567 0-.4.338-.67.78-.67.49 0 .734.306.734.62 0 .214-.104.442-.416.59v.012c.314.124.51.345.51.65 0 .44-.377.735-.858.735-.53 0-.847-.314-.847-.684zm1.36-.014c0-.307-.215-.454-.557-.55-.295.084-.454.278-.454.52-.013.255.183.48.505.48.308 0 .506-.19.506-.45zm-.94-1.26c0 .25.19.387.48.465.218-.073.385-.228.385-.457 0-.202-.12-.412-.428-.412-.282 0-.438.187-.438.405zm1.66 1.714c0-.144.097-.245.232-.245.136 0 .228.1.228.245 0 .14-.09.245-.232.245-.136 0-.23-.105-.23-.245zm1.55-2.003h-.01l-.437.236-.066-.26.55-.295h.293v2.523h-.33v-2.203zm1.306 2.003c0-.144.097-.245.233-.245s.23.1.23.245c0 .14-.09.245-.233.245-.138 0-.23-.105-.23-.245zm1.548-2.003h-.007l-.438.236-.066-.26.55-.295h.292v2.523h-.33v-2.203zm-27.443 12.516l-.664-2.617h.357l.31 1.324c.077.326.147.652.194.904h.007c.044-.26.126-.57.214-.908l.35-1.32h.353l.318 1.328c.074.31.144.62.183.896h.007c.054-.287.128-.578.21-.904l.345-1.32h.345l-.742 2.617h-.353l-.33-1.363a7.983 7.983 0 0 1-.17-.854h-.01c-.045.26-.104.516-.2.854l-.374 1.363h-.35zm3.194-2.407c.004.116-.08.21-.216.21a.203.203 0 0 1-.206-.21c0-.12.09-.214.213-.214.13 0 .21.093.21.214zm-.38 2.407v-1.88h.342v1.88h-.342zm.95-2.617h1.41v.283h-1.072v.87h.99v.278h-.99v1.184h-.338v-2.616zm2.19.21c.003.116-.082.21-.218.21a.203.203 0 0 1-.206-.21c0-.12.09-.214.213-.214.128 0 .21.093.21.214zm-.38 2.407v-1.88h.34v1.88h-.34zm.938-1.293a8.58 8.58 0 0 0-.016-.586h.3l.01.37h.016c.085-.253.29-.412.52-.412a.36.36 0 0 1 .097.01v.323a.562.562 0 0 0-.117-.012c-.24 0-.412.183-.458.44a.934.934 0 0 0-.015.158v1.002h-.338V80.33zm1.45.415c.01.462.304.652.646.652.245 0 .393-.043.52-.097l.06.245c-.12.055-.327.116-.625.116-.58 0-.925-.38-.925-.946s.334-1.013.88-1.013c.614 0 .777.54.777.886 0 .07-.007.124-.01.16h-1.323zm1.003-.244c.005-.217-.088-.555-.473-.555-.345 0-.497.318-.524.556h.998zm2.442 1.414v.194h-1.94v-.194h1.94zm.204-.29v-.21l.268-.26c.645-.613.936-.94.94-1.32 0-.256-.125-.493-.5-.493-.23 0-.42.117-.537.215l-.108-.24c.174-.148.42-.257.713-.257.543 0 .773.373.773.733 0 .467-.338.844-.87 1.356l-.202.187v.008h1.133v.284h-1.61zm2.05-.203c0-.143.097-.244.232-.244s.23.1.23.245c0 .14-.09.246-.234.246-.136 0-.23-.105-.23-.245zm1.863.203v-.687h-1.174v-.226l1.126-1.61h.37v1.567h.353v.268h-.354v.687h-.32zm0-.956v-.842c0-.132.003-.264.01-.396h-.01a8.86 8.86 0 0 1-.21.372l-.618.858v.007h.827zm3.076.84c-.15.053-.45.143-.804.143-.396 0-.723-.1-.98-.346-.224-.217-.364-.567-.364-.974.004-.78.54-1.35 1.418-1.35.303 0 .54.065.652.12l-.082.275a1.34 1.34 0 0 0-.578-.113c-.637 0-1.053.396-1.053 1.052 0 .664.4 1.056 1.01 1.056.22 0 .373-.03.45-.07v-.78h-.532v-.272h.862v1.258zm2.192.407v.194h-1.94v-.194h1.94zm1.882-1.58c0 .858-.318 1.332-.878 1.332-.493 0-.826-.462-.834-1.297 0-.847.364-1.313.877-1.313.532 0 .835.473.835 1.277zm-1.37.04c0 .655.2 1.028.512 1.028.35 0 .517-.408.517-1.052 0-.62-.16-1.03-.514-1.03-.3 0-.517.365-.517 1.053zm3.39-.04c0 .858-.317 1.332-.877 1.332-.492 0-.826-.462-.834-1.297 0-.847.363-1.313.876-1.313.533 0 .835.473.835 1.277zm-1.37.04c0 .655.202 1.028.513 1.028.35 0 .517-.408.517-1.052 0-.62-.16-1.03-.513-1.03-.3 0-.516.365-.516 1.053zm2.26.426l-.272.823h-.35l.89-2.617h.407l.893 2.617h-.36l-.28-.823h-.93zm.858-.264l-.257-.753c-.057-.17-.096-.326-.135-.478h-.008c-.04.156-.082.315-.132.474l-.256.756h.788zm1.124-1.495c.147-.03.38-.053.617-.053.337 0 .555.058.718.19.136.1.217.256.217.462 0 .25-.167.473-.442.574v.008c.248.062.54.268.54.656 0 .225-.09.396-.222.524-.182.167-.477.245-.903.245-.233 0-.412-.016-.524-.03V79.04zm.337 1.072h.306c.357 0 .567-.186.567-.438 0-.307-.233-.427-.575-.427-.155 0-.245.012-.3.023v.842zm0 1.254c.065.012.162.016.282.016.35 0 .672-.128.672-.508 0-.357-.307-.505-.676-.505h-.28v.996zm2.417-1.95h-.008l-.44.238-.065-.26.552-.295h.29v2.522h-.33v-2.205zm1.362 1.814c.097.063.32.16.558.16.44 0 .575-.28.57-.49-.003-.353-.32-.505-.65-.505h-.19v-.255h.19c.247 0 .562-.128.562-.427 0-.202-.128-.38-.442-.38a.926.926 0 0 0-.505.167l-.09-.25c.133-.096.39-.193.66-.193.498 0 .723.295.723.602 0 .26-.155.48-.466.593v.007c.31.063.563.295.563.648 0 .404-.314.757-.92.757-.283 0-.53-.09-.656-.17l.092-.265zm-31.683 5.547l-.664-2.616h.357l.31 1.325c.077.326.147.652.194.905h.007c.044-.26.126-.57.214-.91l.35-1.32h.353l.318 1.33c.074.31.144.62.183.895h.007c.054-.287.128-.578.21-.905l.345-1.32h.345l-.742 2.616h-.353l-.33-1.362a8.032 8.032 0 0 1-.17-.854h-.01c-.045.26-.104.516-.2.854l-.374 1.362h-.35zm3.194-2.406c.004.118-.08.21-.216.21a.203.203 0 0 1-.206-.21c0-.12.09-.212.213-.212.13 0 .21.092.21.213zm-.38 2.407V84.9h.342v1.877h-.342zm.95-2.616h1.41v.284h-1.072v.87h.99v.28h-.99v1.183h-.338V84.16zm2.19.21c.003.118-.082.21-.218.21a.203.203 0 0 1-.206-.21c0-.12.09-.212.213-.212.128 0 .21.092.21.213zm-.38 2.407V84.9h.34v1.877h-.34zm.938-1.292a8.6 8.6 0 0 0-.016-.586h.3l.01.367h.016c.085-.252.29-.412.52-.412.04 0 .066.005.097.012v.322a.567.567 0 0 0-.117-.012c-.24 0-.412.183-.458.438a.944.944 0 0 0-.015.16v1h-.338v-1.29zm1.45.415c.01.462.304.652.646.652.245 0 .393-.042.52-.097l.06.245c-.12.055-.327.116-.625.116-.58 0-.925-.38-.925-.947 0-.568.334-1.015.88-1.015.614 0 .777.54.777.886 0 .07-.007.125-.01.16h-1.323zm1.003-.244c.005-.217-.088-.555-.473-.555-.345 0-.497.32-.524.556h.998zm2.442 1.413v.193h-1.94v-.194h1.94zm1.71-2.528h-.962l-.097.647c.058-.008.112-.017.206-.017.193 0 .387.043.542.137.198.112.36.33.36.648 0 .493-.39.862-.938.862-.275 0-.508-.078-.63-.156l.086-.26c.105.062.31.14.54.14.322 0 .598-.21.598-.547-.004-.327-.22-.56-.727-.56-.142 0-.254.017-.348.028l.163-1.21h1.208v.287zm2.628 2.12c-.15.054-.45.143-.804.143-.396 0-.722-.1-.978-.346-.225-.218-.365-.567-.365-.975.003-.78.54-1.35 1.417-1.35.303 0 .54.065.652.12l-.08.275a1.357 1.357 0 0 0-.58-.113c-.636 0-1.052.396-1.052 1.053 0 .664.4 1.056 1.01 1.056.22 0 .372-.03.45-.07v-.78h-.532v-.272h.862v1.258zm2.193.407v.193h-1.94v-.194h1.94zm1.88-1.58c0 .856-.318 1.33-.877 1.33-.493 0-.826-.46-.834-1.296 0-.847.364-1.313.877-1.313.532 0 .833.475.833 1.28zm-1.37.037c0 .656.202 1.03.513 1.03.35 0 .517-.41.517-1.053 0-.622-.16-1.03-.513-1.03-.3.002-.517.367-.517 1.053zm3.392-.038c0 .856-.318 1.33-.877 1.33-.493 0-.826-.46-.835-1.296 0-.847.365-1.313.878-1.313.533 0 .835.475.835 1.28zm-1.37.037c0 .656.202 1.03.513 1.03.35 0 .517-.41.517-1.053 0-.622-.16-1.03-.513-1.03-.3.002-.517.367-.517 1.053zm2.26.428l-.272.823h-.35l.89-2.616h.407l.893 2.616h-.36l-.28-.823h-.93zm.857-.265l-.257-.753c-.058-.17-.097-.326-.136-.478h-.01a8.72 8.72 0 0 1-.13.473l-.257.757h.79zm1.124-1.494c.147-.03.38-.054.617-.054.338 0 .556.06.72.19a.55.55 0 0 1 .216.462c0 .252-.168.473-.443.574v.008c.248.062.54.268.54.656 0 .225-.09.396-.222.524-.183.167-.478.245-.904.245-.232 0-.41-.015-.523-.03v-2.574zm.338 1.07h.307c.358 0 .568-.185.568-.437 0-.308-.233-.428-.575-.428-.155 0-.245.012-.3.023v.842zm0 1.255c.066.012.163.017.283.017.35 0 .672-.128.672-.51 0-.356-.308-.503-.677-.503h-.28v.997zm2.418-1.947h-.01l-.437.236-.065-.26.55-.296h.29v2.523h-.328v-2.204zm1.36 1.813c.098.062.323.16.56.16.44 0 .575-.28.57-.49-.003-.354-.32-.505-.652-.505h-.19v-.255h.19c.25 0 .563-.128.563-.427 0-.202-.128-.38-.442-.38a.926.926 0 0 0-.504.167l-.09-.25c.133-.096.39-.193.66-.193.498 0 .723.295.723.602 0 .26-.156.48-.467.594v.008c.31.062.563.295.563.648 0 .404-.314.757-.92.757-.283 0-.53-.09-.656-.17l.093-.264zm-27.962 24.15c0 .734-.272 1.14-.75 1.14-.422 0-.708-.396-.715-1.11 0-.725.313-1.124.75-1.124.456 0 .715.405.715 1.093zm-1.172.032c0 .563.173.88.438.88.3 0 .442-.348.442-.9 0-.53-.136-.88-.438-.88-.256 0-.442.312-.442.9zm2.374 1.07v-.587h-1.004v-.192l.964-1.38h.316v1.344h.302v.23h-.302v.587h-.276zm0-.817v-.72c0-.113.003-.226.01-.338h-.01c-.066.126-.12.22-.18.32l-.528.733v.007h.708zm.828.82v-.18l.23-.224c.55-.524.8-.804.803-1.13 0-.22-.106-.422-.43-.422-.195 0-.358.1-.458.183l-.093-.206a.953.953 0 0 1 .612-.22c.466 0 .662.32.662.63 0 .397-.29.72-.745 1.16l-.17.158v.007h.97v.242h-1.38zm2.368-1.89h-.007l-.374.204-.056-.223.472-.25h.25v2.16h-.284v-1.89zm1.097 1.89v-.18l.23-.224c.55-.524.8-.804.804-1.13 0-.22-.108-.422-.43-.422-.197 0-.36.1-.46.183l-.092-.206a.95.95 0 0 1 .612-.22c.465 0 .66.32.66.63 0 .397-.288.72-.744 1.16l-.173.158v.007h.97v.242h-1.378zm1.733 0v-.18l.23-.224c.55-.524.8-.804.803-1.13 0-.22-.105-.422-.428-.422-.196 0-.36.1-.458.183l-.093-.206a.95.95 0 0 1 .612-.22c.465 0 .662.32.662.63 0 .397-.29.72-.744 1.16l-.173.158v.007h.97v.242h-1.38zm3.17-1.105c0 .735-.273 1.14-.752 1.14-.422 0-.708-.395-.715-1.11 0-.724.314-1.123.752-1.123.456 0 .715.405.715 1.093zm-1.174.033c0 .563.172.88.438.88.3 0 .442-.348.442-.9 0-.53-.136-.88-.438-.88-.256 0-.442.312-.442.9zm2.906-.033c0 .735-.273 1.14-.75 1.14-.423 0-.71-.395-.715-1.11 0-.724.312-1.123.75-1.123.455 0 .715.405.715 1.093zm-1.174.033c0 .563.173.88.438.88.3 0 .442-.348.442-.9 0-.53-.136-.88-.44-.88-.253 0-.44.312-.44.9zm2.375 1.07v-.587h-1.003v-.192l.964-1.38h.317v1.344h.302v.23h-.303v.587h-.276zm0-.817v-.72c0-.113.004-.226.01-.338h-.01c-.065.126-.12.22-.18.32l-.528.733v.007h.71zm.803.27c0-.27.162-.465.43-.577l-.004-.01c-.24-.114-.344-.3-.344-.486 0-.342.29-.575.668-.575.42 0 .628.262.628.532 0 .183-.09.38-.355.505v.01c.27.106.436.296.436.558 0 .376-.322.63-.734.63-.455-.002-.727-.272-.727-.587zm1.163-.013c0-.263-.183-.39-.476-.472-.252.072-.39.24-.39.445-.01.22.157.412.433.412.264 0 .433-.162.433-.385zm-.803-1.08c0 .216.162.333.41.398.188-.063.33-.196.33-.392 0-.173-.103-.353-.365-.353-.244 0-.375.16-.375.347zm2.034-.246h-.007l-.375.204-.057-.223.473-.25h.25v2.16h-.283v-1.89zm1.168 1.554a.98.98 0 0 0 .48.136c.374 0 .49-.24.487-.418-.004-.303-.276-.434-.56-.434h-.162v-.22h.163c.213 0 .48-.108.48-.364 0-.173-.11-.326-.378-.326a.796.796 0 0 0-.432.143l-.077-.212c.113-.083.332-.166.565-.166.426 0 .62.252.62.515 0 .223-.134.412-.4.51v.006c.267.053.482.252.482.555 0 .346-.27.648-.788.648a1.1 1.1 0 0 1-.562-.146l.083-.226zm-17.14-9.518c-.015-.313-.036-.688-.032-.968h-.01c-.076.263-.17.542-.282.85l-.395 1.088h-.22l-.36-1.066a10.495 10.495 0 0 1-.26-.872h-.007c-.006.28-.023.655-.043.99l-.06.962h-.276l.155-2.24h.37l.38 1.083c.094.276.17.52.227.754h.01a8.88 8.88 0 0 1 .236-.754l.4-1.084h.368l.14 2.24h-.283l-.057-.984zm2.52.884a2.1 2.1 0 0 1-.69.123c-.338 0-.617-.086-.836-.295-.194-.186-.314-.485-.314-.834.003-.668.462-1.157 1.214-1.157.26 0 .46.057.558.104l-.07.237a1.168 1.168 0 0 0-.496-.097c-.545 0-.9.34-.9.9 0 .57.342.905.864.905.19 0 .32-.027.386-.06v-.668h-.456v-.232h.738v1.075zm.366.1v-.18l.23-.222c.55-.525.8-.804.804-1.13 0-.22-.106-.422-.43-.422-.195 0-.358.1-.457.183l-.093-.207a.948.948 0 0 1 .612-.22c.465 0 .662.32.662.628 0 .4-.29.723-.745 1.162l-.173.16v.005h.97v.243h-1.38zm2.368-1.888h-.006l-.376.203-.057-.223.47-.252h.25v2.16h-.282v-1.888zm1.098 1.888v-.18l.23-.222c.55-.525.8-.804.804-1.13 0-.22-.107-.422-.43-.422a.73.73 0 0 0-.457.183l-.093-.207a.948.948 0 0 1 .612-.22c.465 0 .662.32.662.628 0 .4-.29.723-.745 1.162l-.174.16v.005h.97v.243h-1.38zm1.733 0v-.18l.228-.222c.552-.525.8-.804.804-1.13 0-.22-.106-.422-.43-.422-.195 0-.358.1-.458.183l-.093-.207a.95.95 0 0 1 .612-.22c.466 0 .662.32.662.628 0 .4-.29.723-.744 1.162l-.173.16v.005h.97v.243H211zm3.167-1.104c0 .735-.273 1.14-.75 1.14-.423 0-.71-.395-.715-1.11 0-.725.312-1.124.75-1.124.456 0 .715.406.715 1.094zm-1.173.034c0 .562.172.88.438.88.3 0 .442-.348.442-.9 0-.532-.136-.88-.44-.88-.254 0-.44.31-.44.9zm2.906-.034c0 .735-.272 1.14-.75 1.14-.423 0-.71-.395-.716-1.11 0-.725.313-1.124.75-1.124.457 0 .716.406.716 1.094zm-1.173.034c0 .562.173.88.44.88.298 0 .44-.348.44-.9 0-.532-.136-.88-.437-.88-.257 0-.443.31-.443.9zm2.374 1.07v-.588h-1.003v-.193l.965-1.38h.315v1.343h.303v.23h-.303v.587h-.276zm0-.818v-.72c0-.114.005-.227.012-.34h-.01a5.94 5.94 0 0 1-.18.32l-.53.733v.007h.71zm.803.27c0-.273.163-.466.43-.578l-.005-.01c-.24-.113-.343-.3-.343-.486 0-.342.29-.575.668-.575.42 0 .63.262.63.532 0 .183-.09.38-.356.505v.01c.27.106.436.296.436.56 0 .374-.322.627-.734.627-.455 0-.727-.27-.727-.585zm1.163-.014c0-.263-.183-.39-.476-.472-.252.073-.39.24-.39.445-.01.22.157.413.434.413.263 0 .432-.162.432-.385zm-.803-1.08c0 .216.162.333.412.398.186-.063.328-.196.328-.392 0-.173-.103-.353-.365-.353-.242.002-.375.162-.375.348zm2.035-.246h-.008l-.375.203-.057-.223.473-.252h.25v2.16h-.282v-1.888zm1.167 1.553a.98.98 0 0 0 .48.136c.374 0 .49-.238.487-.417-.004-.303-.276-.433-.56-.433h-.162v-.22h.163c.213 0 .48-.11.48-.366 0-.173-.11-.326-.378-.326a.796.796 0 0 0-.432.143l-.077-.212c.113-.083.332-.166.565-.166.426 0 .62.252.62.515 0 .223-.134.413-.4.51v.006c.267.053.482.252.482.555 0 .346-.27.648-.788.648a1.1 1.1 0 0 1-.562-.146l.083-.225zm-19.048-11.92l-.475.623v.01l.754-.1v.34l-.754-.09v.01l.48.598-.315.18-.3-.7h-.01l-.325.704-.284-.18.474-.608v-.01l-.74.095v-.34l.735.096v-.01l-.47-.608.306-.174.31.694h.01l.304-.7.3.17zm2.11 0l-.474.623v.01l.753-.1v.34l-.753-.09v.01l.48.598-.315.18-.3-.7h-.01l-.323.704-.284-.18.475-.608v-.01l-.74.095v-.34l.734.096v-.01l-.47-.608.304-.174.31.694h.01l.304-.7.3.17zm2.11 0l-.473.623v.01l.753-.1v.34l-.753-.09v.01l.48.598-.315.18-.3-.7h-.01l-.325.704-.285-.18.474-.608v-.01l-.74.095v-.34l.735.096v-.01l-.47-.608.304-.174.31.694h.01l.305-.7.298.17zm2.11 0l-.473.623v.01l.753-.1v.34l-.753-.09v.01l.48.598-.315.18-.3-.7h-.01l-.324.704-.285-.18.475-.608v-.01l-.738.095v-.34l.733.096v-.01l-.47-.608.305-.174.31.694h.01l.305-.7.298.17zm2.11 0l-.473.623v.01l.753-.1v.34l-.753-.09v.01l.48.598-.315.18-.3-.7h-.01l-.324.704-.285-.18.476-.608v-.01l-.74.095v-.34l.734.096v-.01l-.47-.608.305-.174.31.694h.01l.305-.7.298.17zm2.11 0l-.473.623v.01l.753-.1v.34l-.753-.09v.01l.48.598-.315.18-.3-.7h-.01l-.325.704-.285-.18.474-.608v-.01l-.738.095v-.34l.733.096v-.01l-.47-.608.305-.174.31.694h.01l.304-.7.298.17zm2.112 0l-.475.623v.01l.753-.1v.34l-.753-.09v.01l.48.598-.315.18-.3-.7h-.01l-.325.704-.284-.18.476-.608v-.01l-.74.095v-.34l.735.096v-.01l-.47-.608.306-.174.31.694h.01l.304-.7.3.17zm2.108 0l-.474.623v.01l.753-.1v.34l-.753-.09v.01l.48.598-.314.18-.3-.7h-.01l-.325.704-.284-.18.475-.608v-.01l-.74.095v-.34l.735.096v-.01l-.47-.608.306-.174.31.694h.01l.304-.7.298.17zm-58.526-21.82l.52 1.114c.066.155.128.306.19.46h.007c.046-.135.096-.287.163-.473l.407-1.103h.357l-.547 1.343c-.144.35-.307.75-.49.994-.17.214-.36.323-.593.323a.6.6 0 0 1-.19-.023l.035-.276a.463.463 0 0 0 .125.012c.27-.003.43-.264.512-.45.026-.058.02-.097-.012-.16l-.87-1.762h.384zm3.396.738v1.88h-.342v-1.608h-.874v1.607h-.338v-1.88h1.554zm.585.614c0-.24-.008-.435-.016-.614h.307l.016.322h.008a.74.74 0 0 1 .667-.365c.455 0 .796.384.796.955 0 .675-.41 1.01-.853 1.01-.25 0-.466-.11-.578-.296h-.01v1.02h-.337v-2.033zm.337.5c0 .05.008.097.015.14.063.236.268.4.513.4.36 0 .57-.296.57-.727 0-.377-.197-.7-.558-.7a.546.546 0 0 0-.517.424.533.533 0 0 0-.023.14v.323zm2.942.766l-.027-.237h-.01a.703.703 0 0 1-.576.28c-.382 0-.576-.268-.576-.54 0-.454.404-.703 1.13-.7v-.038c0-.155-.043-.435-.427-.435a.94.94 0 0 0-.49.14l-.077-.225c.156-.1.38-.167.618-.167.574 0 .714.393.714.77v.703c0 .163.008.322.03.45h-.31zm-.05-.96c-.373-.007-.796.06-.796.424 0 .22.148.326.323.326.243 0 .4-.155.453-.314a.348.348 0 0 0 .02-.11v-.326zm.902-.896c.132-.023.377-.042.598-.042.314 0 .834.05.834.47 0 .232-.178.376-.392.423v.008c.275.04.478.194.478.466 0 .493-.62.555-.99.555-.21 0-.427-.015-.528-.023v-1.857zm.323 1.63c.097.012.167.016.275.016.23 0 .57-.054.57-.326s-.27-.33-.597-.33h-.25v.64zm.004-.866h.258c.252 0 .512-.073.512-.294 0-.186-.163-.276-.504-.276-.113 0-.183.008-.265.016v.555zm3.09-.787v1.88h-.338V69.7h-.645v.49c0 .528-.05.88-.295 1.04a.552.552 0 0 1-.373.117l-.036-.268a.42.42 0 0 0 .186-.08c.175-.127.194-.39.194-.81v-.757h1.306zm.78 1.002c.007.462.302.652.644.652.245 0 .392-.042.52-.097l.06.245c-.12.055-.327.117-.626.117-.58 0-.924-.38-.924-.947s.334-1.013.88-1.013c.614 0 .778.54.778.885 0 .07-.008.125-.012.16h-1.32zm1-.245c.005-.218-.088-.555-.473-.555-.346 0-.497.318-.524.555h.998zm1.114-.757v.757h.893v-.757h.338v1.88h-.338v-.852h-.893v.852h-.338v-1.88h.338zm2.134 0v.792c0 .3-.004.485-.02.753l.012.004c.113-.23.18-.36.303-.58l.586-.97h.4v1.88h-.327v-.797c0-.307.008-.466.023-.77h-.012c-.12.242-.202.393-.31.584-.18.29-.385.65-.587.98h-.392v-1.878h.323zm2.057 1.002c.008.462.303.652.645.652.245 0 .392-.042.52-.097l.058.245c-.12.055-.326.117-.625.117-.578 0-.924-.38-.924-.947s.333-1.013.88-1.013c.613 0 .776.54.776.885 0 .07-.008.125-.012.16h-1.32zm1-.245c.005-.218-.088-.555-.473-.555-.346 0-.497.318-.524.555h.998zm1.638-.143c0-.24-.008-.435-.016-.614h.307l.016.322h.008a.74.74 0 0 1 .668-.365c.454 0 .796.384.796.955 0 .675-.412 1.01-.854 1.01-.248 0-.466-.11-.578-.296h-.008v1.02h-.338v-2.033zm.338.5c0 .05.01.097.016.14.063.236.268.4.513.4.36 0 .57-.296.57-.727 0-.377-.198-.7-.56-.7a.546.546 0 0 0-.516.424.577.577 0 0 0-.023.14v.323zm3.603-.19c0 .695-.48.998-.936.998-.51 0-.9-.373-.9-.967 0-.63.41-.998.93-.998.54 0 .906.393.906.967zm-1.49.02c0 .41.236.72.57.72.325 0 .57-.306.57-.73 0-.317-.16-.72-.563-.72s-.578.373-.578.73zm2.035-.944l.412 1.11c.042.125.09.272.12.384h.008c.035-.112.074-.256.12-.392l.373-1.103h.362l-.512 1.34c-.245.644-.412.974-.645 1.175a.94.94 0 0 1-.42.222l-.084-.29a.913.913 0 0 0 .3-.166c.093-.074.21-.206.287-.38.016-.035.027-.062.027-.082s-.008-.046-.023-.09l-.694-1.73h.372zm3.09 0v.272h-.586v1.607h-.338v-1.607h-.586v-.272h1.51zm.47 1.002c.007.462.302.652.644.652.245 0 .392-.042.52-.097l.058.245c-.12.055-.326.117-.625.117-.578 0-.924-.38-.924-.947s.335-1.013.882-1.013c.614 0 .777.54.777.885 0 .07-.01.125-.013.16h-1.32zm1-.245c.004-.218-.09-.555-.474-.555-.346 0-.497.318-.524.555h.998zm.784-.143c0-.24-.008-.435-.016-.614h.307l.016.322h.007a.74.74 0 0 1 .667-.365c.455 0 .796.384.796.955 0 .675-.412 1.01-.854 1.01-.25 0-.466-.11-.578-.296h-.008v1.02h-.338v-2.033zm.338.5c0 .05.008.097.015.14.063.236.268.4.513.4.36 0 .57-.296.57-.727 0-.377-.197-.7-.558-.7a.547.547 0 0 0-.517.424.533.533 0 0 0-.023.14v.323zm3.6-.19c0 .695-.48.998-.935.998-.51 0-.9-.373-.9-.967 0-.63.41-.998.93-.998.54 0 .906.393.906.967zm-1.49.02c0 .41.237.72.57.72.326 0 .57-.306.57-.73 0-.317-.158-.72-.562-.72-.403 0-.578.373-.578.73zm1.97-.944h.42l.34.948c.048.14.13.37.172.517h.007c.042-.14.146-.438.22-.644l.304-.82h.423l.132 1.88h-.327l-.043-.897c-.01-.202-.027-.443-.035-.672h-.012c-.05.17-.1.322-.206.61l-.36.947h-.25l-.332-.927c-.06-.18-.14-.45-.186-.625h-.018c-.007.22-.02.47-.03.675l-.047.89h-.314l.14-1.88zm2.41.31c0-.143.097-.244.233-.244s.225.1.23.244c0 .136-.09.24-.234.24-.136 0-.23-.104-.23-.24zm0 1.37c0-.143.097-.244.233-.244s.225.1.23.244c0 .136-.09.24-.234.24-.136 0-.23-.104-.23-.24zm-38.646 7.893V80.1h1.266v-1.094h.34v2.617h-.34v-1.227h-1.266v1.227h-.338v-2.617h.338zm3.252 2.617l-.027-.237h-.013a.703.703 0 0 1-.575.28c-.38 0-.575-.268-.575-.54 0-.455.404-.703 1.13-.7v-.038c0-.155-.043-.435-.427-.435a.94.94 0 0 0-.49.14l-.077-.225c.155-.1.38-.167.618-.167.576 0 .715.393.715.77v.703c0 .163.008.322.03.45h-.31zm-.05-.96c-.373-.007-.796.06-.796.424 0 .22.147.326.322.326.244 0 .4-.155.454-.314a.35.35 0 0 0 .02-.11v-.326zm2.344-.92v1.88h-.338v-1.61h-.645v.49c0 .526-.05.88-.295 1.04a.547.547 0 0 1-.373.116l-.036-.27a.42.42 0 0 0 .186-.077c.175-.128.194-.392.194-.81v-.758h1.306zm.903 0v.793c0 .3-.004.485-.02.753l.012.003c.112-.23.18-.36.303-.58l.586-.97h.4v1.88h-.326v-.796c0-.307.008-.466.023-.77h-.01c-.12.242-.203.393-.312.584-.18.292-.384.653-.586.983h-.392v-1.88h.323zm2.134 0v.618c0 .238.09.4.388.4.147 0 .3-.053.404-.13v-.886h.337v1.88h-.338v-.754h-.01a.982.982 0 0 1-.508.144c-.357 0-.617-.183-.617-.613v-.655h.342zm2.034 0v.793c0 .3-.003.485-.02.753l.013.003c.113-.23.18-.36.303-.58l.586-.97h.4v1.88h-.327v-.796c0-.307.008-.466.024-.77h-.013c-.12.242-.202.393-.31.584-.18.292-.385.653-.587.983h-.392v-1.88h.323zm2.057 1.002c.008.462.303.652.644.652.246 0 .394-.043.522-.097l.058.245a1.51 1.51 0 0 1-.625.116c-.58 0-.924-.38-.924-.946s.335-1.013.882-1.013c.613 0 .776.54.776.886 0 .07-.008.124-.012.16h-1.32zm1.002-.244c.003-.217-.09-.555-.475-.555-.346 0-.497.318-.524.556h1zm1.934 1.123l-.664-2.617h.357l.31 1.324c.08.326.148.652.195.904h.008c.042-.26.124-.57.213-.908l.35-1.32h.353l.318 1.328c.074.31.144.62.183.896h.007c.055-.287.128-.578.21-.904l.345-1.32h.345l-.742 2.617h-.353l-.33-1.363a7.743 7.743 0 0 1-.17-.854h-.01c-.045.26-.103.516-.2.854l-.374 1.363h-.352zm3.194-2.407c.004.116-.08.21-.217.21a.203.203 0 0 1-.205-.21c0-.12.09-.214.213-.214.128 0 .21.093.21.214zm-.38 2.407v-1.88h.34v1.88h-.34zm.95-2.617h1.41v.283h-1.072v.87h.99v.278h-.99v1.184h-.338v-2.616zm2.19.21c.002.116-.083.21-.218.21a.203.203 0 0 1-.206-.21c0-.12.09-.214.213-.214.128 0 .21.093.21.214zm-.382 2.407v-1.88h.342v1.88h-.342zm3.132-.07c-.09.047-.288.108-.54.108-.567 0-.936-.383-.936-.957 0-.58.396-.998 1.01-.998.202 0 .38.05.474.097l-.078.264a.79.79 0 0 0-.396-.09c-.43 0-.664.32-.664.71 0 .436.28.704.652.704.194 0 .322-.05.42-.093l.058.256zm.597-.808c.008.462.303.652.645.652.245 0 .392-.043.52-.097l.06.245c-.122.055-.327.116-.626.116-.58 0-.924-.38-.924-.946s.334-1.013.88-1.013c.614 0 .778.54.778.886 0 .07-.008.124-.012.16h-1.32zm1.002-.244c.004-.217-.09-.555-.474-.555-.346 0-.497.318-.524.556h.997zm2.037-.756v.272h-.586v1.607h-.338v-1.607h-.586v-.272h1.51zm.644 0v.792c0 .3-.004.485-.02.753l.012.003c.112-.23.18-.36.303-.58l.586-.97h.398v1.88h-.326v-.796c0-.307.008-.466.023-.77h-.012c-.12.242-.202.393-.31.584-.18.292-.386.653-.587.983h-.392v-1.88h.324zm2.61 1.88v-.21l.268-.26c.645-.613.936-.94.94-1.32 0-.256-.125-.493-.5-.493-.23 0-.42.117-.537.215l-.11-.24c.174-.148.423-.257.714-.257.543 0 .772.373.772.733 0 .467-.338.844-.87 1.356l-.202.187v.008h1.133v.284h-1.61zm2.05-.203c0-.143.096-.244.232-.244s.23.1.23.245c0 .14-.09.246-.234.246-.135 0-.23-.105-.23-.245zm1.862.203v-.687h-1.172v-.226l1.126-1.61h.37v1.567h.353v.268h-.354v.687h-.323zm0-.956v-.842c0-.132.004-.264.012-.396h-.012a8.92 8.92 0 0 1-.21.372l-.616.858v.007h.826zm3.077.84a2.44 2.44 0 0 1-.803.143c-.396 0-.722-.1-.978-.346-.225-.217-.365-.567-.365-.974.005-.78.54-1.35 1.418-1.35.303 0 .54.065.653.12l-.082.275a1.337 1.337 0 0 0-.578-.113c-.636 0-1.052.396-1.052 1.052 0 .664.4 1.056 1.01 1.056.22 0 .373-.03.45-.07v-.78h-.532v-.272h.86v1.258zm.454-1.453c0-.144.097-.245.233-.245s.225.1.23.244c0 .136-.09.24-.234.24-.136 0-.23-.104-.23-.24zm0 1.37c0-.143.097-.244.233-.244s.225.1.23.245c0 .136-.09.24-.234.24-.136 0-.23-.104-.23-.24zm-35.79 2.737v1.096h1.266V84.16h.34v2.617h-.34V85.55h-1.266v1.227h-.338V84.16h.338zm3.252 2.617l-.027-.236h-.012a.702.702 0 0 1-.574.28c-.382 0-.576-.268-.576-.54 0-.453.404-.702 1.13-.698v-.04c0-.154-.043-.434-.428-.434a.94.94 0 0 0-.49.14l-.077-.225c.154-.1.38-.167.616-.167.575 0 .714.393.714.77v.702c0 .164.008.323.03.45h-.308zm-.05-.958c-.374-.01-.797.057-.797.422 0 .22.147.326.322.326a.47.47 0 0 0 .455-.314.378.378 0 0 0 .02-.108v-.327zm2.343-.92v1.877h-.338v-1.61h-.644v.488c0 .528-.05.88-.295 1.04a.547.547 0 0 1-.373.117l-.035-.268a.42.42 0 0 0 .186-.078c.175-.128.194-.393.194-.812v-.757h1.305zm.904 0v.79c0 .3-.005.486-.02.754l.01.004c.113-.23.18-.36.304-.58l.586-.97h.4v1.88h-.327v-.797c0-.305.008-.464.023-.768h-.01c-.122.24-.203.392-.312.583-.18.292-.384.652-.586.982h-.393V84.9h.324zm2.133 0v.616c0 .237.09.4.388.4.148 0 .3-.055.405-.133v-.885h.337v1.878h-.337v-.753h-.008a.99.99 0 0 1-.508.144c-.358 0-.62-.182-.62-.613v-.656h.343zm2.033 0v.79c0 .3-.004.486-.02.754l.012.004c.112-.23.178-.36.303-.58l.587-.97h.4v1.88h-.326v-.797c0-.305.008-.464.024-.768h-.012c-.12.24-.202.392-.31.583-.18.292-.385.652-.587.982h-.392V84.9h.323zm2.057 1c.008.462.303.652.645.652.245 0 .392-.042.52-.097l.06.245a1.51 1.51 0 0 1-.626.116c-.58 0-.924-.38-.924-.947 0-.568.334-1.015.88-1.015.614 0 .777.54.777.886 0 .07-.008.125-.01.16h-1.322zm1.002-.244c.004-.217-.09-.555-.474-.555-.345 0-.496.32-.523.556h.998zm1.935 1.12l-.664-2.615h.357l.31 1.325c.078.326.148.652.194.905h.008c.043-.26.124-.57.214-.91l.348-1.32h.353l.32 1.33c.073.31.143.62.182.895h.008c.055-.287.128-.578.21-.905l.345-1.32h.346l-.74 2.616h-.355l-.33-1.362a7.79 7.79 0 0 1-.17-.854h-.01c-.045.26-.104.516-.2.854l-.374 1.362h-.35zm3.193-2.405c.004.118-.082.21-.217.21a.203.203 0 0 1-.206-.21c0-.12.09-.212.214-.212.128 0 .21.092.21.213zm-.38 2.407V84.9h.34v1.877h-.34zm.95-2.616h1.41v.284h-1.072v.87h.99v.28h-.99v1.183h-.336V84.16zm2.19.21c.003.118-.083.21-.218.21a.203.203 0 0 1-.206-.21c0-.12.088-.212.213-.212.128 0 .21.092.21.213zm-.38 2.407V84.9h.34v1.877h-.34zm3.13-.07c-.088.048-.287.11-.54.11-.566 0-.935-.385-.935-.96 0-.578.396-.997 1.01-.997.2 0 .38.05.473.097l-.077.264a.788.788 0 0 0-.396-.088c-.43 0-.664.318-.664.71 0 .436.28.703.652.703a.99.99 0 0 0 .42-.093l.06.256zm.598-.807c.01.462.304.652.646.652.245 0 .392-.042.52-.097l.058.245a1.51 1.51 0 0 1-.625.116c-.58 0-.925-.38-.925-.947 0-.568.334-1.015.88-1.015.614 0 .777.54.777.886 0 .07-.008.125-.012.16h-1.32zm1.002-.244c.004-.217-.09-.555-.474-.555-.346 0-.497.32-.524.556h.998zm2.038-.757v.27h-.586v1.607h-.338V85.17h-.586v-.27h1.51zm.643 0v.79c0 .3-.003.486-.02.754l.012.004c.113-.23.18-.36.303-.58l.586-.97h.4v1.88h-.326v-.797c0-.305.007-.464.023-.768h-.01c-.12.24-.203.392-.312.583-.18.292-.384.652-.586.982h-.393V84.9h.323zm4.118-.358h-.96l-.098.647c.058-.008.112-.017.206-.017.194 0 .388.043.543.137.2.112.362.33.362.648 0 .493-.392.862-.94.862-.274 0-.507-.078-.628-.156l.085-.26c.104.062.31.14.54.14.32 0 .597-.21.597-.547-.004-.327-.22-.56-.726-.56-.143 0-.255.017-.35.028l.164-1.21h1.208v.287zm2.627 2.12c-.15.054-.45.143-.803.143-.396 0-.722-.1-.978-.346-.225-.218-.365-.567-.365-.975.005-.78.54-1.35 1.418-1.35.303 0 .54.065.653.12l-.082.275a1.352 1.352 0 0 0-.578-.113c-.636 0-1.052.396-1.052 1.053 0 .664.4 1.056 1.01 1.056.22 0 .373-.03.45-.07v-.78h-.532v-.272h.86v1.258zm.454-1.453c0-.144.097-.246.233-.246s.225.102.23.245c0 .135-.09.24-.234.24-.136 0-.23-.105-.23-.24zm0 1.37c0-.144.097-.245.233-.245s.225.102.23.244c0 .136-.09.24-.234.24-.136 0-.23-.104-.23-.24zm-26.806 2.736v2.617h-.338V89.6h-1.215v2.333h-.336v-2.617h1.89zm1.648 2.617l-.027-.237h-.012a.7.7 0 0 1-.574.28c-.382 0-.576-.268-.576-.54 0-.454.404-.703 1.13-.7V90.7c0-.156-.043-.435-.428-.435a.93.93 0 0 0-.49.14l-.077-.225c.154-.1.38-.167.617-.167.574 0 .714.393.714.77v.702c0 .164.01.323.032.45h-.31zm-.05-.96c-.373-.006-.796.06-.796.424 0 .222.147.326.322.326a.47.47 0 0 0 .455-.314.38.38 0 0 0 .02-.11v-.326zm.91-.306c0-.24-.007-.435-.014-.613h.307l.015.322h.008a.74.74 0 0 1 .668-.365c.454 0 .796.385.796.956 0 .675-.412 1.01-.854 1.01-.25 0-.466-.11-.58-.296h-.007v1.02h-.337v-2.033zm.34.5c0 .052.007.098.014.142.063.235.268.398.513.398.36 0 .57-.295.57-.726 0-.376-.198-.7-.56-.7a.547.547 0 0 0-.516.424.577.577 0 0 0-.023.14v.322zm3.6-.19c0 .696-.48 1-.936 1-.51 0-.9-.374-.9-.968 0-.63.41-1 .93-1 .54 0 .906.393.906.968zm-1.49.02c0 .413.237.723.57.723.326 0 .57-.307.57-.73 0-.318-.158-.72-.562-.72-.404-.002-.578.37-.578.728zm3.376-.943v1.88h-.337V90.32h-.644v.49c0 .526-.05.88-.295 1.04a.547.547 0 0 1-.372.116l-.035-.268a.42.42 0 0 0 .186-.078c.174-.127.193-.392.193-.81v-.758h1.305zm.92 0v.637c.077-.015.21-.02.31-.02.423 0 .87.133.87.634 0 .194-.078.33-.198.43-.206.176-.54.22-.815.22-.19 0-.365-.013-.504-.028v-1.872h.337zm0 1.642c.065.008.14.016.252.016.256 0 .586-.085.586-.4 0-.326-.342-.396-.594-.396-.09 0-.167.008-.245.02v.76zm2.785.237l-.664-2.617h.356l.31 1.324c.08.326.148.65.195.904h.01c.042-.26.124-.57.213-.91l.35-1.32h.353l.318 1.33c.074.31.144.62.183.896h.007c.055-.287.128-.58.21-.905l.345-1.32h.345l-.742 2.617h-.353l-.33-1.363a7.743 7.743 0 0 1-.17-.855h-.01c-.045.26-.103.516-.2.854l-.374 1.362h-.353zm3.193-2.407c.004.116-.08.21-.217.21a.203.203 0 0 1-.207-.21c0-.12.09-.214.213-.214.13 0 .21.094.21.214zm-.38 2.407v-1.88h.342v1.88h-.342zm.95-2.617h1.41v.284h-1.072v.87h.99v.278h-.99v1.185h-.338v-2.617zm2.19.21c.002.116-.083.21-.218.21a.203.203 0 0 1-.206-.21c0-.12.09-.214.213-.214.13 0 .21.094.21.214zm-.38 2.407v-1.88h.34v1.88h-.34zm3.13-.07a1.27 1.27 0 0 1-.54.11c-.566 0-.935-.385-.935-.96 0-.578.397-.998 1.01-.998.202 0 .38.05.474.097l-.078.264a.796.796 0 0 0-.396-.09c-.43 0-.664.32-.664.71 0 .436.28.704.652.704a.98.98 0 0 0 .42-.093l.06.256zm.598-.807c.008.462.303.652.645.652.244 0 .39-.043.52-.098l.058.245a1.51 1.51 0 0 1-.625.117c-.58 0-.924-.38-.924-.947s.333-1.014.88-1.014c.613 0 .777.54.777.886 0 .07-.008.124-.012.16h-1.32zm1-.244c.005-.218-.088-.556-.473-.556-.345 0-.496.318-.523.556h.998zm2.04-.758v.27h-.587v1.608h-.338v-1.607h-.587v-.27h1.51zm.642 0v.792c0 .3-.003.485-.02.753l.012.003c.112-.23.18-.36.303-.578l.587-.97h.4v1.878h-.326v-.796c0-.307.01-.466.024-.77h-.012c-.12.24-.2.393-.31.584-.18.292-.385.653-.587.983h-.392v-1.88h.323zm1.785.31c0-.144.097-.245.233-.245s.225.1.23.244c0 .137-.09.24-.234.24-.136 0-.23-.103-.23-.24zm0 1.37c0-.143.097-.244.233-.244s.225.1.23.245c0 .136-.09.24-.234.24-.136 0-.23-.104-.23-.24zM168.868 98.5c-.124.062-.373.125-.69.125-.74 0-1.294-.466-1.294-1.324 0-.818.555-1.373 1.367-1.373.326 0 .532.07.62.116l-.08.276a1.233 1.233 0 0 0-.53-.11c-.613 0-1.02.392-1.02 1.08 0 .64.37 1.05 1.006 1.05.206 0 .416-.04.55-.107l.07.267zm.57-.792c.008.46.303.652.645.652.245 0 .392-.043.52-.098l.06.245a1.51 1.51 0 0 1-.626.117c-.58 0-.924-.38-.924-.947s.334-1.014.88-1.014c.614 0 .778.54.778.885 0 .07-.008.124-.012.16h-1.32zm1-.245c.005-.218-.088-.556-.473-.556-.346 0-.497.318-.524.556h.998zm.785-.144c0-.24-.008-.437-.016-.614h.307l.016.322h.007a.74.74 0 0 1 .667-.365c.454 0 .796.384.796.955 0 .676-.412 1.01-.854 1.01-.25 0-.466-.11-.58-.295h-.007v1.02h-.338V97.32zm.337.5a.527.527 0 0 0 .53.54c.36 0 .568-.295.568-.726 0-.377-.198-.7-.56-.7a.545.545 0 0 0-.515.424.533.533 0 0 0-.023.14v.322zm2.215-1.114v.792c0 .3-.004.485-.02.753l.012.005c.113-.23.18-.36.303-.578l.586-.97h.4v1.878h-.327v-.796c0-.308.007-.467.022-.77h-.012c-.12.24-.202.392-.31.583-.18.29-.385.652-.587.982h-.392v-1.88h.325zm2.18 0v.792c0 .3-.003.485-.02.753l.012.005c.113-.23.18-.36.303-.578l.586-.97h.4v1.878h-.327v-.796c0-.308.006-.467.022-.77h-.012c-.12.24-.202.392-.31.583-.18.29-.385.652-.587.982h-.393v-1.88h.325zm.222-.765c.012.168.093.296.25.296.166 0 .243-.124.263-.295h.245c-.016.32-.217.483-.516.483-.343 0-.475-.214-.49-.482h.247zm1.974.766v.757h.894v-.757h.338v1.88h-.338v-.85h-.893v.85h-.337v-1.88h.338zm2.15 0v.64c.075-.015.183-.023.308-.023.404 0 .812.167.812.63a.533.533 0 0 1-.194.434c-.206.175-.508.218-.757.218-.19 0-.366-.012-.506-.027v-1.87h.337zm0 1.642c.067.008.14.016.238.016.26 0 .543-.108.543-.4 0-.302-.27-.396-.527-.396-.097 0-.183.008-.252.02v.76zm1.694-1.642v1.88h-.338v-1.88h.338zm.903 0v.792c0 .3-.003.485-.02.753l.012.005c.112-.23.178-.36.302-.578l.586-.97h.4v1.878h-.326v-.796c0-.308.008-.467.023-.77h-.012c-.12.24-.202.392-.31.583-.18.29-.385.652-.587.982h-.392v-1.88h.323zm.222-.765c.01.168.092.296.248.296.167 0 .244-.124.264-.295h.245c-.016.32-.218.483-.516.483-.34 0-.473-.214-.488-.482h.247zm2.827.766v.757h.893v-.757h.337v1.88h-.337v-.85h-.893v.85h-.338v-1.88h.337zm3.52.924c0 .695-.48.998-.936.998-.508 0-.9-.373-.9-.967 0-.628.412-.997.932-.997.54 0 .905.392.905.967zm-1.49.02c0 .41.236.72.57.72.326 0 .57-.306.57-.73 0-.317-.158-.72-.562-.72-.405 0-.58.372-.58.73zm1.97-.944h.42l.34.947c.047.14.13.37.172.516h.007c.042-.14.147-.44.22-.645l.304-.82h.424l.132 1.88h-.326l-.042-.896c-.012-.204-.027-.444-.035-.673h-.012c-.05.17-.1.323-.205.61l-.36.947h-.25l-.334-.928c-.058-.178-.14-.45-.186-.625h-.016c-.008.222-.02.47-.03.677l-.047.89h-.313l.14-1.88zm2.68 1.002c.01.46.304.652.646.652.245 0 .392-.043.52-.098l.06.245c-.12.055-.327.117-.626.117-.58 0-.924-.38-.924-.947s.334-1.014.88-1.014c.615 0 .777.54.777.885 0 .07-.008.124-.01.16h-1.322zm1.003-.245c.003-.218-.09-.556-.474-.556-.346 0-.497.318-.524.556h.998zm.783-.144c0-.24-.007-.437-.015-.614h.307l.015.322h.008a.74.74 0 0 1 .668-.365c.455 0 .796.384.796.955 0 .676-.412 1.01-.854 1.01-.25 0-.466-.11-.58-.295h-.007v1.02h-.337V97.32zm.338.5c0 .05.01.097.016.14.063.237.27.4.513.4.36 0 .57-.295.57-.726 0-.377-.198-.7-.56-.7a.546.546 0 0 0-.516.424.577.577 0 0 0-.023.14v.322zm1.82-.804c0-.144.097-.245.233-.245s.225.102.23.246c0 .136-.09.24-.234.24-.136 0-.23-.104-.23-.24zm0 1.37c0-.143.097-.244.233-.244s.225.1.23.245c0 .136-.09.24-.234.24-.136 0-.23-.105-.23-.24zm-27.35 8.126l-.665-2.617h.357l.31 1.324c.08.325.148.65.195.904h.008c.043-.26.125-.57.214-.91l.35-1.32h.352l.318 1.33c.074.31.144.62.183.896h.007c.055-.288.128-.58.21-.905l.345-1.32h.346l-.74 2.617h-.354l-.33-1.363a7.537 7.537 0 0 1-.17-.855h-.008a7.77 7.77 0 0 1-.202.854l-.373 1.362h-.354zm3.088-.823l-.272.822h-.35l.89-2.617h.408l.893 2.617h-.36l-.28-.823h-.93zm.858-.265l-.256-.753c-.058-.17-.097-.327-.136-.48h-.008c-.04.157-.082.316-.132.475l-.256.757h.788zm1.125 1.087v-2.617h.37l.84 1.324c.193.306.345.582.47.85l.007-.005c-.03-.35-.04-.667-.04-1.075v-1.095h.32v2.617h-.342l-.83-1.328a8.226 8.226 0 0 1-.49-.873l-.012.005c.02.33.027.644.027 1.08v1.117h-.32zm5.644-1.15c-.02-.365-.042-.803-.04-1.13h-.01c-.09.307-.2.633-.33.994l-.463 1.27h-.255l-.423-1.246c-.125-.37-.23-.707-.303-1.018h-.01a36.64 36.64 0 0 1-.05 1.157l-.07 1.12h-.32l.18-2.616h.432l.447 1.266c.107.322.197.61.263.882h.012c.066-.264.16-.55.276-.882l.467-1.266h.43l.164 2.617H180l-.066-1.148zm1.33.327l-.272.822h-.35l.89-2.617h.408l.893 2.617h-.36l-.28-.823h-.93zm.858-.265l-.256-.753c-.058-.17-.097-.327-.136-.48h-.008c-.04.157-.082.316-.132.475l-.256.757h.788zm2.895 1c-.125.064-.373.126-.69.126-.738 0-1.294-.465-1.294-1.323 0-.82.556-1.375 1.367-1.375.326 0 .532.07.62.116l-.08.276a1.215 1.215 0 0 0-.53-.11c-.612 0-1.02.393-1.02 1.08 0 .64.37 1.052 1.005 1.052.206 0 .416-.043.55-.11l.072.27zm1.233-1.09v.252h-.96v-.252h.96zm1.47 1.177l-.027-.237h-.012a.7.7 0 0 1-.574.28c-.38 0-.575-.27-.575-.54 0-.455.405-.704 1.13-.7v-.04c0-.154-.042-.434-.426-.434a.94.94 0 0 0-.49.14l-.077-.224c.156-.1.38-.167.618-.167.575 0 .714.39.714.768v.703c0 .164.007.323.03.452h-.31zm-.05-.96c-.373-.007-.796.06-.796.424 0 .222.147.327.322.327.244 0 .4-.156.454-.315a.343.343 0 0 0 .02-.108v-.327zm2.367-.92v1.624l.194.004-.02.85h-.267l-.016-.598h-1.3l-.016.598h-.267l-.016-.85.16-.004c.08-.12.143-.25.185-.384.074-.233.11-.485.11-.75v-.49h1.255zm-.95.57c0 .25-.036.49-.098.7-.04.128-.094.244-.152.35h.865v-1.36h-.617v.31zm1.582.044c0-.24-.01-.435-.017-.613h.307l.016.322h.008a.74.74 0 0 1 .668-.365c.454 0 .796.384.796.955 0 .675-.412 1.01-.854 1.01-.248 0-.466-.11-.578-.296h-.008v1.02h-.338v-2.034zm.337.5c0 .05.008.098.015.14.063.238.268.4.513.4.36 0 .57-.294.57-.725 0-.376-.197-.698-.558-.698a.545.545 0 0 0-.516.423.533.533 0 0 0-.022.14v.322zm2.09-.112c.01.462.304.652.646.652.245 0 .393-.042.52-.097l.06.244c-.12.054-.328.117-.626.117-.58 0-.924-.38-.924-.946 0-.567.334-1.014.88-1.014.614 0 .778.54.778.885 0 .07-.007.125-.01.16h-1.322zm1.003-.244c.004-.217-.09-.555-.474-.555-.346 0-.497.318-.524.555h.998zm2.123 1.052c-.09.046-.288.11-.54.11-.567 0-.937-.386-.937-.96 0-.578.396-.998 1.01-.998.2 0 .38.05.473.097l-.08.265a.796.796 0 0 0-.395-.09c-.43 0-.664.32-.664.712 0 .435.28.703.653.703a.99.99 0 0 0 .42-.093l.06.255zm.347-1.5c0-.143.097-.244.233-.244s.225.1.23.245c0 .136-.09.24-.234.24-.136 0-.23-.104-.23-.24zm0 1.37c0-.143.097-.244.233-.244s.225.1.23.245c0 .136-.09.24-.234.24-.136 0-.23-.104-.23-.24zm-28.17-48.35h.905l-1.773 5.45h-.668l-1.264-3.86-1.25 3.86h-.674l-1.777-5.45h.923l1.185 3.687 1.215-3.688H166l1.21 3.678 1.19-3.678zm5.41 5.45h.917v-2.465h2.072v-.87h-2.073v-1.244h2.875v-.87h-3.792v5.45zm12.598-2.82a1.56 1.56 0 0 1-.784.502l1.32 2.318h-1.03l-1.293-2.264h-1.513v2.264h-.918v-5.45h2.83c.537 0 .97.14 1.28.417.32.28.48.67.48 1.16-.002.405-.125.76-.372 1.05m-.58-1.033c0-.232-.067-.407-.205-.532-.14-.127-.346-.192-.613-.192h-1.903v1.436h1.87c.29 0 .507-.063.648-.184.137-.117.203-.29.203-.53m3.36 2.986v-1.595h2.072v-.87h-2.072v-1.244h2.782v-.87h-3.7v5.45h3.82v-.872h-2.902zm-10.005-3.71h.33v3.714h-.33v.87h1.258v-5.454h-1.257v.87zm-8.488 4.585h1.26v-.87h-.334v-3.714h.334v-.87h-1.26v5.454zm86.89 50.995h-58.788V66.156h58.788v48.256zm-57.788-1h56.788V67.156h-56.788v46.256zm61.17-25.88h2.715v1.113h-1.444v3.17h1.443v1.112h-1.444v2.966h1.443v1.112h-2.718V87.533zm5.067 4.284h1.373v-3.17h-1.373v3.17zm1.373 1.112h-1.373v4.078h-1.274V87.534H268.682v9.472h-1.274v-4.078zm3.92 2.966h1.445v1.112H270.055v-9.472H272.772v1.11h-1.444v7.25zm-1.702-18.88l.228-2.313h.48v-1.44l.243-.245.344-.346 1.552-1.56.385-.354-.87-.862-1.822 1.83a.803.803 0 0 0-.614-.29 1.75 1.75 0 0 0-.177-.058c-.223-.06-.558-.104-1-.134v-.174h-1.625l-.5.14v.016c-.08.003-.162.008-.243.013a.618.618 0 0 0-.41-.154h-.11a.624.624 0 0 0-.56.353.907.907 0 0 0-.313.25.693.693 0 0 0-.07.127l-.08.02-1.56-1.565-.352-.384-.87.863 2.877 2.886.337 3.383-3.25 3.26.853.85 2.554-2.562.08.604.17.194.037.553h1.385v-.348h1.146c.206.236.51.38.845.38a1.1 1.1 0 0 0 1.07-1.072l1.9 1.907.365.322.83-.827-3.253-3.264zm-1.387-3.357h-1.55l-.38.03-.555-.56h3.01l-.525.53zm.368 2.334l-.497-.5.605-.608-.11 1.11zm-2.196-.498l-.5.502-.11-1.116.61.614zm.85.852l1.194 1.198-.025.255c-.338.085-.614.33-.745.655h-1.528l-.09-.91 1.193-1.198zm-5.385 5.878v2.484h10.77v-2.484h-10.77zm-60.377 17.186h-.607v-4.71h.608v4.71zm3.13-4.712h-.608v4.71h.607v-4.71zm4.07 0h-.607v4.71h.608v-4.71zm-3.19 0h-.304v4.71h.304v-4.71zm.668 0h-.303v4.71h.303v-4.71zm.67 0h-.305v4.71h.306v-4.71zm.668 0h-.305v4.71h.304v-4.71zm-4.193 0h-1.214v4.71h1.215v-4.71zm7.262 0h-1.215v4.71h1.215v-4.71zm2.643 0h-.607v4.71h.607v-4.71zm-1.853 0h-.304v4.71h.304v-4.71zm.668 0h-.304v4.71h.304v-4.71zm3.068 0h-1.215v4.71h1.215v-4.71zm2.643 0h-.606v4.71h.607v-4.71zm-1.853 0h-.303v4.71h.303v-4.71zm.67 0h-.305v4.71h.304v-4.71zm3.068 0h-1.216v4.71h1.215v-4.71zm2.643 0h-.607v4.71h.608v-4.71zm-1.853 0h-.305v4.71h.305v-4.71zm.668 0h-.304v4.71h.303v-4.71zm3.068 0h-1.214v4.71h1.215v-4.71zm1.174 4.712h-.607v-4.71h.607v4.71zm3.13-4.712h-.608v4.71h.607v-4.71zm4.07 0h-.607v4.71h.607v-4.71zm-3.19 0h-.304v4.71h.304v-4.71zm.67 0h-.305v4.71h.303v-4.71zm.668 0h-.305v4.71h.305v-4.71zm.668 0h-.305v4.71h.305v-4.71zm-4.193 0h-1.215v4.71h1.215v-4.71zm7.26 0h-1.215v4.71h1.215v-4.71zm2.644 0h-.606v4.71h.607v-4.71zm-1.853 0h-.304v4.71h.304v-4.71zm.67 0h-.306v4.71h.306v-4.71zm3.066 0h-1.215v4.71h1.215v-4.71zm2.644 0h-.607v4.71h.607v-4.71zm-1.854 0h-.303v4.71h.303v-4.71zm.67 0h-.305v4.71h.304v-4.71zm3.068 0h-1.215v4.71h1.216v-4.71zm2.643 0h-.607v4.71h.607v-4.71zm-1.852 0h-.304v4.71h.305v-4.71zm.67 0h-.305v4.71h.304v-4.71zm3.067 0h-1.215v4.71h1.215v-4.71zm-46.5 14.135h-.606v-4.71h.608v4.71zm3.13-4.71h-.607v4.71h.607v-4.71zm4.07 0h-.606v4.71h.608v-4.71zm-3.19 0h-.303v4.71h.304v-4.71zm.67 0h-.304v4.71h.303v-4.71zm.67 0h-.306v4.71h.306v-4.71zm.667 0h-.305v4.71h.304v-4.71zm-4.193 0h-1.214v4.71h1.215v-4.71zm7.262 0h-1.215v4.71h1.215v-4.71zm2.643 0h-.607v4.71h.607v-4.71zm-1.853 0h-.304v4.71h.304v-4.71zm.668 0h-.304v4.71h.304v-4.71zm3.068 0h-1.215v4.71h1.215v-4.71zm2.643 0h-.606v4.71h.607v-4.71zm-1.853 0h-.303v4.71h.303v-4.71zm.67 0h-.305v4.71h.304v-4.71zm3.068 0h-1.216v4.71h1.215v-4.71zm2.643 0h-.607v4.71h.608v-4.71zm-1.853 0h-.305v4.71h.305v-4.71zm.668 0h-.304v4.71h.303v-4.71zm3.068 0h-1.214v4.71h1.215v-4.71zm1.174 4.71h-.607v-4.71h.607v4.71zm3.13-4.71h-.608v4.71h.607v-4.71zm4.07 0h-.607v4.71h.607v-4.71zm-3.19 0h-.304v4.71h.304v-4.71zm.67 0h-.305v4.71h.303v-4.71zm.668 0h-.305v4.71h.305v-4.71zm.668 0h-.305v4.71h.305v-4.71zm-4.193 0h-1.215v4.71h1.215v-4.71zm7.26 0h-1.215v4.71h1.215v-4.71zm2.644 0h-.606v4.71h.607v-4.71zm-1.853 0h-.304v4.71h.304v-4.71zm.67 0h-.306v4.71h.306v-4.71zm3.066 0h-1.215v4.71h1.215v-4.71zm2.644 0h-.607v4.71h.607v-4.71zm-1.854 0h-.303v4.71h.303v-4.71zm.67 0h-.305v4.71h.304v-4.71zm3.068 0h-1.215v4.71h1.216v-4.71zm2.643 0h-.607v4.71h.607v-4.71zm-1.852 0h-.304v4.71h.305v-4.71zm.67 0h-.305v4.71h.304v-4.71zm3.067 0h-1.215v4.71h1.215v-4.71z"/><path fill="#EC6608" d="M63 92.48v30.755H0V81.098h63l97.632 83.117L63 92.48zm303.63-11.382v31.57L255 78.1l111.63 45.117v.02h63V81.1h-63zM165 174.168c-1.838 0-3.333-1.495-3.333-3.333s1.496-3.333 3.333-3.333 3.333 1.495 3.333 3.333-1.495 3.333-3.333 3.333zm0-5.666c-1.287 0-2.333 1.047-2.333 2.333s1.047 2.333 2.333 2.333 2.333-1.047 2.333-2.333-1.046-2.333-2.333-2.333zm0 .625a1.708 1.708 0 1 0 0 3.415 1.708 1.708 0 0 0 0-3.415zm-2.964-12.478h-.786l-.68-1.388h-.487v1.387h-.68v-3.477h1.363c.345 0 .62.103.823.308.202.206.304.458.304.758 0 .23-.06.424-.18.58a.977.977 0 0 1-.455.332l.776 1.5zm-.957-2.08c.09-.085.136-.195.136-.332s-.045-.248-.137-.332a.5.5 0 0 0-.357-.127h-.64v.916h.64a.5.5 0 0 0 .356-.127zm3.558 1.005h-1.59c0 .17.048.307.148.41.1.104.235.156.407.156.134 0 .242-.018.325-.055a.868.868 0 0 0 .25-.184l.387.377c-.14.14-.282.242-.425.306s-.324.095-.542.095c-.163 0-.31-.02-.44-.06a1.066 1.066 0 0 1-.37-.204.933.933 0 0 1-.27-.405 1.834 1.834 0 0 1-.097-.636c0-.406.102-.725.304-.954.202-.23.47-.344.805-.344.344 0 .615.112.812.34s.295.518.295.875v.285zm-.625-.434a.723.723 0 0 0-.06-.272c-.077-.176-.22-.264-.424-.264s-.347.088-.425.264a.727.727 0 0 0-.06.273h.968zm3.124.71c0 .27-.1.476-.303.617s-.46.212-.776.212c-.234 0-.437-.025-.607-.074s-.33-.146-.475-.293l.415-.415c.16.16.386.24.678.24.124 0 .23-.022.317-.066s.132-.11.132-.198c0-.14-.09-.218-.27-.234l-.4-.04c-.494-.048-.74-.285-.74-.712a.7.7 0 0 1 .285-.595c.19-.144.422-.215.695-.215.437 0 .76.1.972.298l-.392.395c-.127-.112-.324-.17-.59-.17-.12 0-.21.024-.272.07a.21.21 0 0 0-.09.174c0 .13.088.204.263.22l.4.04c.247.022.435.098.563.227.13.127.194.3.194.52zm2.622-.275h-1.592c0 .17.05.307.15.41.098.104.234.156.406.156.134 0 .242-.018.325-.055a.868.868 0 0 0 .25-.184l.386.377c-.14.14-.282.242-.425.306s-.323.095-.54.095c-.164 0-.31-.02-.442-.06a1.066 1.066 0 0 1-.37-.204.933.933 0 0 1-.268-.405 1.834 1.834 0 0 1-.098-.636c0-.406.1-.725.303-.954.202-.23.47-.344.805-.344.345 0 .616.112.813.34s.295.518.295.875v.285zm-.626-.434a.723.723 0 0 0-.06-.272c-.077-.176-.22-.264-.424-.264s-.346.088-.424.264a.727.727 0 0 0-.06.273h.968zm2.352 1.51h-.347c-.242 0-.425-.072-.55-.216a.756.756 0 0 1-.188-.513v-1.26h-.27v-.48h.27v-.753h.635v.752h.45v.48h-.45v1.222c0 .153.073.23.22.23h.228v.537zm71.03-81.486l-.368.484v.008l.585-.078v.264l-.585-.07v.008l.372.465-.244.14-.232-.542h-.008l-.252.546-.222-.14.368-.474v-.008l-.573.074v-.264l.57.074v-.008l-.365-.473.236-.135.24.54h.008l.237-.543.233.132zm1.64 0l-.367.484v.008l.584-.078v.264l-.585-.07v.008l.37.465-.243.14-.232-.542h-.008l-.252.546-.222-.14.368-.474v-.008l-.572.074v-.264l.57.074v-.008l-.365-.473.237-.135.24.54h.008l.236-.543.233.132zm1.642 0l-.368.484v.008l.585-.078v.264l-.585-.07v.008l.372.465-.244.14-.232-.542h-.008l-.252.546-.222-.14.368-.474v-.008l-.573.074v-.264l.568.074v-.008l-.364-.473.237-.135.24.54h.01l.235-.543.233.132zm1.64 0l-.367.484v.008l.586-.078v.264l-.585-.07v.008l.373.465-.244.14-.233-.542h-.008l-.253.546-.222-.14.368-.474v-.008l-.573.074v-.264l.57.074v-.008l-.365-.473.236-.135.242.54h.007l.236-.543.233.132zm1.643 0l-.367.484v.008l.585-.078v.264l-.585-.07v.008l.372.465-.244.14-.23-.542h-.01l-.25.546-.223-.14.368-.474v-.008l-.573.074v-.264l.57.074v-.008l-.365-.473.237-.135.24.54h.008l.236-.543.233.132zm1.643 0l-.368.484v.008l.585-.078v.264l-.585-.07v.008l.372.465-.244.14-.232-.542h-.007l-.252.546-.22-.14.367-.474v-.008l-.573.074v-.264l.57.074v-.008l-.365-.473.235-.135.24.54h.008l.237-.543.233.132zm1.64 0l-.368.484v.008l.585-.078v.264l-.585-.07v.008l.372.465-.244.14-.232-.542h-.007l-.252.546-.22-.14.367-.474v-.008l-.573.074v-.264l.57.074v-.008l-.365-.473.235-.135.24.54h.008l.237-.543.233.132zm1.642 0l-.368.484v.008l.585-.078v.264l-.585-.07v.008l.372.465-.245.14-.232-.542h-.008l-.252.546-.222-.14.37-.474v-.008l-.574.074v-.264l.57.074v-.008l-.365-.473.238-.135.24.54h.008l.236-.543.233.132zm-51.537-.576v1.88h-.338v-1.612h-.645v.49c0 .527-.05.88-.294 1.04a.547.547 0 0 1-.372.116l-.035-.268a.42.42 0 0 0 .186-.078c.174-.128.193-.392.193-.812v-.757h1.305zm2.29.924c0 .695-.482.998-.936.998-.51 0-.9-.373-.9-.967 0-.63.41-.998.93-.998.54 0 .905.393.905.967zm-1.492.02c0 .412.237.722.57.722.327 0 .572-.307.572-.73 0-.318-.16-.722-.563-.722s-.58.373-.58.73zm3.097-.944v.275h-.815v1.604h-.338v-1.88h1.153zm.668 0v.792c0 .3-.003.485-.02.753l.012.004c.113-.23.18-.36.303-.578l.587-.972h.4v1.88h-.327v-.797c0-.306.008-.465.023-.768h-.01c-.122.24-.204.393-.312.583-.18.29-.384.652-.587.982h-.393v-1.88h.324zm2.196 0v.757h.893v-.757h.337v1.88h-.338v-.85h-.894v.85h-.337v-1.88h.336zm1.738.31c0-.143.097-.244.233-.244s.225.1.23.245c0 .135-.09.24-.234.24-.135 0-.23-.105-.23-.24zm0 1.37c0-.142.097-.243.233-.243s.225.1.23.244c0 .135-.09.24-.234.24-.135 0-.23-.105-.23-.24zm2.81.2l-.027-.238h-.012a.7.7 0 0 1-.575.28c-.38 0-.574-.268-.574-.54 0-.454.404-.703 1.13-.7v-.038c0-.155-.043-.435-.428-.435a.94.94 0 0 0-.49.14l-.077-.225c.156-.1.38-.167.618-.167.575 0 .714.392.714.77v.702c0 .163.008.322.03.45h-.308zm-.05-.96c-.373-.008-.796.058-.796.423 0 .222.147.327.323.327.245 0 .4-.155.455-.314a.35.35 0 0 0 .02-.11v-.325zm2.534-1.797v2.272c0 .167.004.357.016.485h-.307l-.015-.326h-.008c-.104.21-.334.37-.64.37-.455 0-.804-.384-.804-.956-.003-.625.385-1.01.843-1.01.287 0 .48.137.566.29h.007V73.71h.34zm-.34 1.643c0-.042-.005-.1-.017-.144a.503.503 0 0 0-.492-.397c-.354 0-.563.31-.563.726 0 .38.186.694.555.694.23 0 .44-.15.5-.408a.57.57 0 0 0 .017-.147v-.327zm.936-.256c0-.194-.004-.354-.016-.508h.3l.015.302h.012a.647.647 0 0 1 .59-.346c.257 0 .45.156.532.376h.008a.77.77 0 0 1 .21-.244.64.64 0 0 1 .416-.132c.25 0 .618.163.618.815v1.107h-.334v-1.064c0-.36-.133-.578-.408-.578-.193 0-.346.144-.404.31a.578.578 0 0 0-.027.172v1.16h-.334v-1.125c0-.3-.13-.516-.39-.516-.215 0-.37.17-.424.342a.454.454 0 0 0-.027.167v1.133h-.335v-1.37zm3.648-1.036c.005.117-.08.21-.217.21a.203.203 0 0 1-.206-.21c0-.12.09-.213.212-.213.13 0 .21.093.21.214zm-.38 2.407v-1.88h.342v1.88h-.342zm.94-1.37c0-.194-.004-.354-.016-.508h.303l.02.31h.006a.694.694 0 0 1 .622-.354c.26 0 .663.156.663.8v1.122h-.34v-1.083c0-.303-.113-.555-.436-.555-.225 0-.4.16-.457.35a.48.48 0 0 0-.023.158v1.13h-.342v-1.37zm7.143-.51v1.88h-.342V74.86h-.873v1.607h-.338v-1.88h1.553zm1.626 1.88l-.026-.237h-.012a.703.703 0 0 1-.575.28c-.38 0-.574-.268-.574-.54 0-.454.403-.703 1.13-.7v-.038c0-.155-.043-.435-.428-.435a.944.944 0 0 0-.49.14l-.076-.225c.154-.1.38-.167.616-.167.575 0 .715.392.715.77v.702c0 .163.01.322.03.45h-.31zm-.05-.96c-.373-.007-.796.06-.796.424 0 .222.147.327.322.327.244 0 .4-.155.454-.314a.35.35 0 0 0 .02-.11v-.325zm.91-.305c0-.24-.007-.435-.015-.613h.307l.016.32h.008c.14-.228.36-.364.668-.364.454 0 .796.384.796.955 0 .677-.412 1.01-.854 1.01-.25 0-.466-.108-.578-.294h-.008v1.02h-.338v-2.034zm.34.5c0 .05.007.098.014.14.063.237.27.4.514.4.36 0 .57-.295.57-.726 0-.376-.198-.7-.56-.7a.546.546 0 0 0-.516.424.547.547 0 0 0-.023.14v.322zm3.6-.19c0 .695-.48.998-.936.998-.508 0-.9-.373-.9-.967 0-.63.412-.998.933-.998.54 0 .904.393.904.967zm-1.49.02c0 .412.237.722.57.722.327 0 .57-.307.57-.73 0-.318-.158-.722-.562-.722s-.578.373-.578.73zm3.377-.944v1.88h-.338v-1.612h-.646v.49c0 .527-.05.88-.296 1.04a.544.544 0 0 1-.372.116l-.035-.268a.425.425 0 0 0 .188-.078c.175-.128.194-.392.194-.812v-.757h1.305zm.918 0v.637c.078-.016.21-.02.31-.02.425 0 .87.132.87.633 0 .194-.077.33-.197.43-.205.176-.54.22-.814.22-.19 0-.366-.013-.506-.028v-1.87h.337zm0 1.642c.066.008.14.016.253.016.256 0 .586-.085.586-.4 0-.326-.342-.396-.594-.396-.09 0-.167.008-.245.02v.76zm1.552-1.33c0-.145.097-.246.232-.246s.224.1.228.245c0 .135-.09.24-.232.24-.136 0-.23-.105-.23-.24zm0 1.37c0-.144.097-.245.232-.245s.224.1.228.244c0 .135-.09.24-.232.24-.136 0-.23-.105-.23-.24z"/><path fill="#FFF" d="M380.11 107.28v-11.9h1.412v10.642h3.893V95.38h1.41v10.642h3.894V95.38h1.41v11.9h-12.02zm14.638-7.87c.43-.26.933-.454 1.505-.58a8.38 8.38 0 0 1 1.793-.186c.59 0 1.063.08 1.42.238.356.16.63.365.815.62.19.256.314.536.375.842.063.306.094.612.094.918 0 .68-.018 1.343-.052 1.99s-.05 1.257-.05 1.835c0 .42.016.816.05 1.19s.096.72.187 1.037h-1.003l-.356-1.19h-.085c-.102.16-.228.314-.382.467s-.337.29-.553.41a3.472 3.472 0 0 1-1.717.415c-.363 0-.7-.057-1.012-.17a2.353 2.353 0 0 1-.808-.484 2.243 2.243 0 0 1-.535-.755 2.46 2.46 0 0 1-.195-1.003c0-.5.102-.915.306-1.25s.49-.6.858-.8c.368-.197.81-.34 1.326-.424s1.085-.127 1.71-.127h.466c.153 0 .31.012.468.035.034-.34.05-.646.05-.918 0-.623-.123-1.06-.373-1.31s-.703-.373-1.36-.373c-.193 0-.4.015-.62.043-.222.03-.448.07-.68.123s-.454.117-.664.192-.394.16-.553.253l-.425-1.036zm2.414 6.816c.317 0 .6-.042.85-.127.25-.086.465-.193.646-.324a2.05 2.05 0 0 0 .714-.893v-1.41a12.528 12.528 0 0 0-.968-.034c-.352 0-.694.02-1.028.058-.335.04-.63.114-.885.22-.254.11-.458.256-.61.443-.153.188-.23.423-.23.707 0 .397.143.723.426.978s.644.38 1.086.38zm11.118-6.256h-3.604v7.31h-1.36v-8.5h4.965v1.19zm7.99 6.324c.386 0 .742-.057 1.07-.17s.613-.28.852-.502c.237-.22.425-.484.56-.79a2.44 2.44 0 0 0 .205-1.004c0-.793-.235-1.382-.705-1.768-.47-.385-1.12-.578-1.947-.578h-1.258v-.493l2.448-3.775.782-.748-1.105.17h-3.366V95.38h6.07v.493l-2.704 4.063-.595.493v.033l.578-.12c.453.012.872.095 1.258.248.385.154.72.375 1.003.664s.504.635.663 1.037c.157.403.237.86.237 1.37 0 .61-.108 1.155-.323 1.63a3.486 3.486 0 0 1-.876 1.2c-.368.322-.802.568-1.3.74a4.87 4.87 0 0 1-1.58.254c-.512 0-.97-.04-1.378-.12a5.773 5.773 0 0 1-1.07-.305l.355-1.208c.26.125.57.23.927.315a5.18 5.18 0 0 0 1.198.127zm-403.825.986v-11.9h1.41v10.642h3.894V95.38h1.41v10.642h3.893V95.38h1.41v11.9H12.446zm14.637-7.87c.43-.26.932-.454 1.505-.58a8.38 8.38 0 0 1 1.793-.186c.59 0 1.063.08 1.42.238s.628.365.815.62c.187.256.312.536.374.842.06.306.092.612.092.918 0 .68-.017 1.343-.05 1.99s-.052 1.257-.052 1.835c0 .42.017.816.05 1.19s.097.72.188 1.037h-1.003l-.357-1.19h-.085c-.102.16-.23.314-.383.467-.153.154-.337.29-.552.41a3.493 3.493 0 0 1-1.717.415c-.362 0-.7-.057-1.01-.17a2.26 2.26 0 0 1-1.344-1.24 2.46 2.46 0 0 1-.195-1.002c0-.5.103-.915.307-1.25.204-.334.49-.6.858-.8.368-.197.81-.34 1.326-.424s1.086-.127 1.71-.127h.467c.153 0 .31.012.467.035.034-.34.05-.646.05-.918 0-.623-.124-1.06-.373-1.31-.25-.25-.702-.373-1.36-.373-.19 0-.398.015-.62.043-.22.03-.447.07-.68.123s-.453.117-.662.192a3.31 3.31 0 0 0-.552.253l-.424-1.036zm2.414 6.816c.317 0 .6-.042.85-.127.25-.086.464-.193.646-.324a2.054 2.054 0 0 0 .714-.893v-1.41a12.528 12.528 0 0 0-.968-.034c-.352 0-.694.02-1.03.058-.333.04-.628.114-.883.22-.255.11-.46.256-.612.443-.153.188-.23.423-.23.707 0 .397.143.723.426.978s.644.38 1.086.38zm11.118-6.256H37.01v7.31h-1.36v-8.5h4.964v1.19zm5.847 6.052h2.38v-8.228l.17-1.003-.68.8-1.87 1.343-.645-.867 3.74-2.89h.612v10.846h2.33v1.258H46.46v-1.258z"/></svg>