<?xml version="1.0" encoding="utf-8"?>
<!-- Generator: Adobe Illustrator 16.0.0, SVG Export Plug-In . SVG Version: 6.00 Build 0)  -->
<!DOCTYPE svg PUBLIC "-//W3C//DTD SVG 1.1//EN" "http://www.w3.org/Graphics/SVG/1.1/DTD/svg11.dtd">
<svg version="1.1" id="Слой_1" xmlns="http://www.w3.org/2000/svg" xmlns:xlink="http://www.w3.org/1999/xlink" x="0px" y="0px"
	 width="33.703px" height="21.927px" viewBox="0 0 33.703 21.927" enable-background="new 0 0 33.703 21.927" xml:space="preserve">
<path fill="#6C6C6C" d="M30.896,9.276l-2.807-1.62v2.24H10.857l3.291-6.313h2.97c0.391,0.93,1.31,1.583,2.382,1.583
	c1.427,0,2.583-1.157,2.583-2.583S20.927,0,19.5,0c-1.072,0-1.991,0.653-2.382,1.583h-4.183L8.602,9.896H6.328
	c-0.424-1.302-1.633-2.25-3.077-2.25C1.456,7.646,0,9.101,0,10.896s1.456,3.251,3.25,3.251c1.444,0,2.653-0.948,3.077-2.251h6.031
	l4.063,8.531h5.35v1.5h5v-5h-5v1.5h-4.087l-3.11-6.531h13.516v2.24l2.807-1.62l2.807-1.62L30.896,9.276z"/>
</svg>
