<?xml version="1.0" encoding="utf-8"?>
<!-- Generator: Adobe Illustrator 16.0.0, SVG Export Plug-In . SVG Version: 6.00 Build 0)  -->
<!DOCTYPE svg PUBLIC "-//W3C//DTD SVG 1.1//EN" "http://www.w3.org/Graphics/SVG/1.1/DTD/svg11.dtd">
<svg version="1.1" id="Слой_1" xmlns="http://www.w3.org/2000/svg" xmlns:xlink="http://www.w3.org/1999/xlink" x="0px" y="0px"
	 width="33.813px" height="30.864px" viewBox="0 0 33.813 30.864" enable-background="new 0 0 33.813 30.864" xml:space="preserve">
<path fill="#6C6C6C" d="M6.806,26.563c-0.224,0-0.449-0.074-0.635-0.228C2.25,23.109,0,18.349,0,13.274
	C0,8.211,2.242,3.456,6.152,0.229C6.579-0.123,7.209-0.062,7.56,0.363C7.911,0.79,7.851,1.419,7.425,1.771
	C3.978,4.617,2,8.81,2,13.274c0,4.474,1.983,8.672,5.442,11.517c0.427,0.351,0.488,0.981,0.137,1.408
	C7.381,26.439,7.095,26.563,6.806,26.563z M10.79,22.293c0.351-0.427,0.29-1.057-0.136-1.408c-2.286-1.881-3.597-4.655-3.597-7.61
	c0-2.95,1.307-5.721,3.585-7.601c0.426-0.352,0.486-0.982,0.135-1.408C10.425,3.841,9.795,3.78,9.368,4.131
	c-2.74,2.262-4.312,5.594-4.312,9.144c0,3.556,1.577,6.893,4.325,9.155c0.187,0.153,0.412,0.228,0.635,0.228
	C10.306,22.657,10.592,22.533,10.79,22.293z M14.001,18.387c0.351-0.427,0.29-1.057-0.137-1.408c-1.112-0.915-1.75-2.265-1.75-3.704
	c0-1.436,0.636-2.784,1.745-3.698c0.426-0.352,0.487-0.982,0.135-1.408c-0.351-0.426-0.982-0.486-1.408-0.135
	c-1.571,1.296-2.472,3.206-2.472,5.241c0,2.039,0.904,3.952,2.48,5.249c0.186,0.153,0.411,0.228,0.635,0.228
	C13.517,18.751,13.803,18.627,14.001,18.387z M27.642,26.336c3.922-3.227,6.171-7.987,6.171-13.062
	c0-5.063-2.242-9.818-6.152-13.045c-0.427-0.352-1.057-0.291-1.408,0.134C25.9,0.79,25.961,1.419,26.387,1.771
	c3.448,2.846,5.426,7.039,5.426,11.503c0,4.474-1.983,8.672-5.442,11.517c-0.426,0.351-0.487,0.981-0.137,1.408
	c0.198,0.24,0.484,0.364,0.773,0.364C27.23,26.563,27.455,26.489,27.642,26.336z M24.431,22.43c2.749-2.263,4.325-5.6,4.325-9.155
	c0-3.549-1.571-6.882-4.312-9.144c-0.427-0.353-1.057-0.291-1.408,0.135c-0.352,0.426-0.291,1.057,0.135,1.408
	c2.278,1.88,3.585,4.65,3.585,7.601c0,2.955-1.311,5.729-3.597,7.61c-0.426,0.352-0.487,0.981-0.137,1.408
	c0.198,0.24,0.484,0.364,0.773,0.364C24.02,22.657,24.244,22.583,24.431,22.43z M21.22,18.523c1.575-1.297,2.479-3.21,2.479-5.249
	c0-2.035-0.901-3.945-2.472-5.241c-0.428-0.353-1.056-0.29-1.408,0.135c-0.352,0.426-0.291,1.056,0.135,1.408
	c1.109,0.915,1.745,2.263,1.745,3.698c0,1.438-0.638,2.789-1.751,3.704c-0.426,0.352-0.487,0.981-0.137,1.408
	c0.198,0.24,0.484,0.364,0.773,0.364C20.809,18.751,21.033,18.677,21.22,18.523z M17.906,29.864v-16.59c0-0.552-0.448-1-1-1
	s-1,0.448-1,1v16.59c0,0.553,0.448,1,1,1S17.906,30.417,17.906,29.864z"/>
</svg>
