<?xml version="1.0" encoding="utf-8"?>
<!-- Generator: Adobe Illustrator 16.0.0, SVG Export Plug-In . SVG Version: 6.00 Build 0)  -->
<!DOCTYPE svg PUBLIC "-//W3C//DTD SVG 1.1//EN" "http://www.w3.org/Graphics/SVG/1.1/DTD/svg11.dtd">
<svg version="1.1" id="Слой_1" xmlns="http://www.w3.org/2000/svg" xmlns:xlink="http://www.w3.org/1999/xlink" x="0px" y="0px"
	 width="32.862px" height="29.841px" viewBox="0 0 32.862 29.841" enable-background="new 0 0 32.862 29.841" xml:space="preserve">
<path d="M28.713,25.264l2.766,2.765l-7.375,0.252l0.252-7.374l2.754,2.755c4.721-4.954,4.645-12.849-0.211-17.704
	c-2.385-2.386-5.564-3.7-8.951-3.7c-1.159,0-2.311,0.157-3.424,0.466l-0.279,0.078v-2.34l0.168-0.041
	C15.572,0.142,16.765,0,17.958,0c3.991,0,7.735,1.547,10.543,4.355C34.241,10.094,34.318,19.427,28.713,25.264z M21.263,27.137
	c-1.087,0.294-2.211,0.442-3.34,0.442c-3.386,0-6.564-1.313-8.949-3.696C4.084,18.993,4.033,11.068,8.82,6.114l2.738,2.738
	l0.251-7.374L4.436,1.73l2.782,2.781c-5.671,5.838-5.62,15.2,0.154,20.974c2.81,2.81,6.555,4.356,10.546,4.356
	c1.162,0,2.324-0.135,3.454-0.4l0.17-0.039l-0.001-2.34L21.263,27.137z"/>
</svg>
