<svg version="1" xmlns="http://www.w3.org/2000/svg" width="30.463" height="27.659" viewBox="0 0 30.463 27.659"><path d="M10 27.66c-1.517 0-4.16-1-6.077-2.853C1.646 22.605.43 19.462.38 19.33L0 18.336l3.18-1c-.29-1.89-.558-5.563.99-8.663 3.183-6.378 8.986-7.447 9.23-7.49l2.892-.498-1.985 2.162c-.026.028-2.61 2.874-3.893 7.082-.572 1.875-.376 3.94-.162 5.182l3.75-1.18.24 1.062c.026.12.653 2.98.106 6.137-.396 2.284-1.88 5.88-3.53 6.413a2.692 2.692 0 0 1-.82.116zm-7.314-8.07c.493 1.002 1.39 2.582 2.628 3.78C6.858 24.86 9.027 25.657 10 25.657a.72.72 0 0 0 .205-.02c.483-.266 1.768-2.512 2.173-4.85.288-1.662.198-3.263.08-4.274l-3.656 1.15-.266-1.017c-.245-.936-.97-4.233-.036-7.3a22.118 22.118 0 0 1 2.255-4.99c-1.573.92-3.45 2.51-4.797 5.21-1.606 3.218-.832 7.44-.66 8.254l.186.89-2.798.88zm11.486 7.382l1.985-2.162c.026-.028 2.61-2.874 3.893-7.082.573-1.877.376-3.942.162-5.182l-3.75 1.18-.24-1.06c-.026-.122-.652-2.983-.105-6.138.395-2.283 1.878-5.88 3.528-6.413.236-.076.512-.115.817-.115 1.517 0 4.162 1 6.078 2.852 2.278 2.203 3.494 5.343 3.544 5.476l.38.992-3.18 1c.29 1.89.555 5.565-.99 8.663-3.184 6.38-8.986 7.448-9.232 7.49l-2.89.5zm7.49-16.978l.265 1.016c.245.937.973 4.23.036 7.303a22.118 22.118 0 0 1-2.255 4.99c1.574-.922 3.45-2.512 4.797-5.212 1.604-3.214.832-7.44.66-8.253l-.186-.887 2.798-.88c-.493-1.003-1.39-2.582-2.628-3.78C23.605 2.795 21.435 2 20.462 2a.75.75 0 0 0-.205.02c-.48.265-1.767 2.51-2.17 4.85-.29 1.67-.2 3.266-.084 4.275l3.658-1.15z"/></svg>