<?xml version="1.0" encoding="utf-8"?>
<!-- Generator: Adobe Illustrator 16.0.0, SVG Export Plug-In . SVG Version: 6.00 Build 0)  -->
<!DOCTYPE svg PUBLIC "-//W3C//DTD SVG 1.0//EN" "http://www.w3.org/TR/2001/REC-SVG-20010904/DTD/svg10.dtd">
<svg version="1.0" id="Слой_2" xmlns="http://www.w3.org/2000/svg" xmlns:xlink="http://www.w3.org/1999/xlink" x="0px" y="0px"
	 width="30.463px" height="27.659px" viewBox="0 0 30.463 27.659" enable-background="new 0 0 30.463 27.659" xml:space="preserve">
<path d="M9.999,27.659c-1.516,0-4.16-1-6.076-2.852c-2.277-2.202-3.493-5.345-3.544-5.478L0,18.337l3.18-0.999
	c-0.291-1.89-0.558-5.564,0.99-8.664c3.183-6.378,8.986-7.447,9.231-7.489l2.891-0.499l-1.985,2.162
	c-0.026,0.028-2.609,2.874-3.893,7.082c-0.572,1.875-0.376,3.941-0.162,5.182l3.751-1.18l0.238,1.062
	c0.027,0.12,0.654,2.981,0.107,6.137c-0.396,2.283-1.879,5.88-3.529,6.412C10.583,27.619,10.306,27.659,9.999,27.659z M2.686,19.59
	c0.493,1.002,1.39,2.582,2.628,3.779c1.544,1.493,3.713,2.289,4.685,2.289c0.145,0,0.203-0.019,0.206-0.02
	c0.483-0.266,1.768-2.512,2.173-4.851c0.288-1.661,0.198-3.262,0.08-4.273l-3.656,1.15l-0.266-1.017
	C8.291,15.711,7.565,12.414,8.5,9.346c0.607-1.989,1.463-3.687,2.255-4.99c-1.573,0.921-3.45,2.512-4.797,5.211
	c-1.606,3.218-0.832,7.441-0.661,8.254l0.187,0.888L2.686,19.59z M14.172,26.972l1.985-2.162c0.026-0.028,2.609-2.874,3.893-7.082
	c0.573-1.877,0.376-3.942,0.162-5.182l-3.751,1.181l-0.238-1.062c-0.027-0.121-0.653-2.982-0.106-6.137
	c0.395-2.283,1.878-5.881,3.528-6.413C19.881,0.039,20.157,0,20.462,0c1.517,0,4.162,1,6.078,2.852
	c2.278,2.203,3.494,5.343,3.544,5.476l0.379,0.992l-3.18,1c0.29,1.89,0.556,5.565-0.989,8.663c-3.184,6.38-8.986,7.448-9.232,7.49
	L14.172,26.972z M21.661,9.994l0.266,1.016c0.245,0.937,0.973,4.231,0.036,7.303c-0.607,1.989-1.463,3.687-2.255,4.99
	c1.574-0.922,3.45-2.512,4.797-5.212c1.604-3.215,0.832-7.44,0.661-8.254l-0.187-0.887l2.799-0.881
	c-0.493-1.002-1.39-2.581-2.628-3.779C23.605,2.795,21.435,2,20.462,2c-0.144,0-0.202,0.018-0.205,0.019
	c-0.481,0.266-1.767,2.512-2.171,4.851c-0.29,1.67-0.2,3.266-0.083,4.275L21.661,9.994z"/>
</svg>
