<svg xmlns="http://www.w3.org/2000/svg" width="23" height="23" viewBox="-3 -3 23 23"><path fill="#231F20" d="M14.002-1.501C16.482-1.501 18.5.519 18.5 3v11c0 2.481-2.018 4.5-4.498 4.5H3.01c-2.48 0-4.498-2.019-4.498-4.5V3C-1.488.519.53-1.5 3.01-1.5h10.992m0-1.5H3.01C-.29-3-2.987-.301-2.987 3v11.001C-2.987 17.299-.29 20 3.01 20h10.995C17.301 20 20 17.299 20 13.999V3c0-3.301-2.699-6-5.998-6z"/><path fill="#231F20" d="M8.506 4.078c2.44 0 4.429 1.985 4.429 4.428 0 2.44-1.989 4.43-4.429 4.43-2.443 0-4.428-1.989-4.428-4.43 0-2.443 1.985-4.428 4.428-4.428m0-1.5c-3.273 0-5.928 2.654-5.928 5.928s2.654 5.927 5.928 5.927 5.926-2.653 5.926-5.927-2.652-5.928-5.926-5.928z"/><circle cx="14.646" cy="2.379" r="1.341" fill="#231F20"/></svg>